<svg width="712" height="204" viewBox="0 0 712 204" fill="none" xmlns="http://www.w3.org/2000/svg">
<path fill-rule="evenodd" clip-rule="evenodd" d="M201.265 104.283C201.245 104.912 200.359 105.078 200.104 104.498C199.994 104.248 199.882 103.997 199.767 103.746C199.559 103.287 199.617 102.753 199.929 102.351C199.993 102.269 200.124 102.102 200.281 101.904C200.702 101.372 201.309 101.452 201.309 102.042C201.309 102.817 201.291 103.488 201.265 104.283ZM196.604 91.9758C195.886 93.2257 194.046 93.2832 193.249 92.078C193.125 91.8918 193 91.7055 192.875 91.5184C190.002 87.2539 186.696 83.0679 183.004 78.9997C182.097 78.0009 182.839 76.4333 184.214 76.4324H184.247C192.875 76.4324 197.398 78.493 198.779 81.0091C199.931 83.1135 199.578 86.7937 196.604 91.9758ZM194.676 135.6C194.213 136.738 193.728 137.869 193.219 138.989C193.14 139.144 193.066 139.3 192.983 139.453C189.808 145.363 184.479 150.016 177.358 153.255C175.76 153.98 174.012 152.567 174.488 150.924C176.853 142.742 178.642 133.869 179.802 124.566C180.018 122.832 180.903 121.239 182.27 120.096C185.198 117.647 187.933 115.201 190.449 112.772L190.476 112.745C191.714 111.551 193.826 112.065 194.33 113.684C196.815 121.672 196.953 129.112 194.676 135.6ZM175.319 165.14C174.595 165.888 173.855 166.628 173.102 167.356C171.789 168.624 170.445 169.85 169.072 171.034C168.206 171.78 166.897 170.847 167.387 169.83C167.527 169.539 167.665 169.247 167.803 168.952C168.38 167.723 168.937 166.461 169.479 165.175C169.608 164.872 169.878 164.646 170.206 164.565C171.572 164.229 172.903 163.86 174.2 163.455C175.251 163.128 176.074 164.36 175.319 165.14ZM161.104 157.754C158.23 158.156 155.207 158.417 152.044 158.524C144.328 158.785 136.17 158.142 127.789 156.65C126.767 156.468 126.571 155.133 127.497 154.68C129.325 153.785 131.154 152.87 132.982 151.934C145.806 145.362 157.772 138.179 168.246 130.814C169.032 130.261 170.114 130.913 169.954 131.84C168.502 140.28 166.491 148.226 163.965 155.438C163.534 156.667 162.433 157.568 161.104 157.754ZM158.14 168.999C151.264 182.073 142.797 189.413 134.589 189.265C125.668 189.112 116.772 180.13 110.185 164.625L110.177 164.607C109.759 163.623 110.24 162.497 111.248 162.073C111.318 162.043 111.388 162.014 111.458 161.984C111.89 161.802 112.376 161.769 112.831 161.893C125.153 165.237 137.294 166.981 148.669 166.981C149.906 166.981 151.133 166.961 152.35 166.92C153.775 166.871 155.178 166.793 156.555 166.687C157.833 166.59 158.722 167.894 158.14 168.999ZM117.425 193.861C113.337 194.369 109.189 194.629 105 194.629C86.2794 194.629 68.3742 189.5 53.0016 179.929C51.944 179.27 52.3935 177.683 53.6504 177.627C53.9111 177.616 54.1547 177.603 54.369 177.59C58.2757 177.344 62.5591 176.791 67.2004 175.927C77.0733 174.091 88.0481 170.941 99.5395 166.699C100.57 166.319 101.72 166.813 102.139 167.799C102.142 167.806 102.144 167.811 102.147 167.817C106.6 178.299 112.081 186.22 118.235 191.259C119.252 192.093 118.747 193.697 117.425 193.861ZM61.73 128.62C70.2166 121.939 80.1602 115.272 91.068 108.961C91.3022 122.449 92.832 135.399 95.5393 147.096C91.4939 145.428 87.4607 143.591 83.4625 141.583C75.7181 137.692 68.4318 133.334 61.73 128.62ZM35.3373 164.761C33.3126 161.068 35.9294 152.513 49.2225 139.512L49.2291 139.505C50.6173 138.149 50.4841 135.925 48.9345 134.744C48.4019 134.34 47.8731 133.931 47.3481 133.522C46.0241 132.487 44.1081 132.582 42.906 133.746C42.6425 134.001 42.4461 134.193 42.3885 134.25C35.7434 140.845 31.0926 146.949 28.4872 152.439C27.7488 153.995 25.5182 154.163 24.5418 152.735C14.2289 137.663 8.6896 120.001 8.6896 101.515C8.6896 94.9055 9.39971 88.4015 10.7812 82.0837C10.9899 81.1278 12.3847 81.0667 12.6774 82.0015C14.6756 88.3796 17.9278 94.9767 22.4219 101.648C28.4711 110.63 36.4488 119.264 45.9023 127.184C49.129 129.887 52.5371 132.502 56.0915 135.024C63.2966 140.136 71.1259 144.853 79.4557 149.038C83.148 150.893 86.744 152.663 90.4268 154.266C92.4769 155.158 94.8103 155.228 96.9029 154.433C98.6395 153.776 100.388 153.092 102.148 152.381C104.061 151.609 105.099 149.593 104.592 147.649C104.528 147.406 104.478 147.211 104.45 147.096C101.55 135.296 99.938 122.014 99.7482 108.101L99.7425 108.103C99.7406 107.938 99.7416 107.77 99.7397 107.603C99.7312 106.843 99.7359 106.077 99.7217 105.318C99.717 105.076 99.7246 104.666 99.7274 104.423C99.7293 104.327 99.7274 104.231 99.7274 104.135C99.7284 104.135 99.7303 104.134 99.7312 104.134C99.7359 103.263 99.7425 102.393 99.7585 101.519C99.8029 99.1326 99.8917 96.7634 100.019 94.4134C100.017 94.4143 100.016 94.4153 100.014 94.4162C100.909 77.6275 103.853 61.8522 108.538 48.5821C108.971 47.3542 108.294 46.0212 107.024 45.6022C105.786 45.1932 104.549 44.8024 103.314 44.4281C102.065 44.0492 100.729 44.7011 100.307 45.8998C95.2296 60.3111 92.0964 77.4084 91.2607 95.5008C91.154 97.796 89.8622 99.8849 87.8177 101.056C76.7343 107.407 66.5555 114.139 57.762 120.925C55.93 122.339 53.3133 122.286 51.5418 120.8C42.7285 113.412 35.3109 105.388 29.7035 97.0629C18.6843 80.7042 16.0656 65.2932 22.3321 53.6765C22.3491 53.6491 22.3643 53.6208 22.3803 53.5943C23.1792 52.3125 24.0102 51.0481 24.8752 49.8009C32.0756 40.5863 45.4774 35.2463 63.2513 34.6428C64.376 34.6045 65.5082 34.5853 66.6508 34.5853C77.553 34.5853 89.253 36.3245 101.152 39.6441L101.155 39.6414C101.416 39.7144 101.676 39.7902 101.937 39.8641C102.138 39.9216 102.339 39.9755 102.54 40.0339C102.54 40.033 102.54 40.0348 102.54 40.0339C105.29 40.8282 108.048 41.7092 110.809 42.6697C110.809 42.6706 110.81 42.6688 110.809 42.6697C110.873 42.6916 110.938 42.7144 111.003 42.7363C111.722 42.9874 112.441 43.2449 113.159 43.5069C113.384 43.5891 113.61 43.6721 113.835 43.7561C114.051 43.8365 114.267 43.9141 114.484 43.9953L114.481 43.999C120.293 46.1737 126.099 48.7026 131.833 51.584C142.932 57.1586 153.091 63.6937 161.931 70.8632C145.059 74.6001 125.448 81.8089 105.729 91.5284C104.82 91.9776 104.221 92.8614 104.164 93.8474C104.095 95.0288 104.004 97.4043 103.939 99.2924C103.898 100.477 105.195 101.263 106.281 100.711L106.292 100.705C125.815 90.7935 145.299 83.3856 162.032 79.4708C165.159 78.7395 167.184 75.8353 166.745 72.754C166.437 70.6012 166.09 68.4822 165.707 66.4006C165.225 63.7859 163.745 61.4477 161.559 59.8391C153.722 54.0673 145.086 48.7729 135.84 44.1277C129.609 40.998 123.287 38.2555 116.952 35.9164C115.597 35.4161 115.016 33.8677 115.723 32.6434C122.25 21.3545 130.014 15.0321 137.577 15.0321C137.655 15.0321 137.733 15.0321 137.812 15.034C146.733 15.1882 155.628 24.1692 162.216 39.6742C165.55 47.5231 168.134 56.5743 169.9 66.4107C169.89 66.4025 169.881 66.3951 169.872 66.3869C170.626 70.5848 171.233 74.9232 171.683 79.374C171.645 79.3977 171.603 79.4187 171.564 79.4425C171.617 79.4945 171.673 79.5466 171.727 79.5995C172.474 87.0676 172.789 94.8444 172.642 102.78C172.549 107.799 172.273 112.75 171.825 117.593C159.89 126.918 145.133 136.198 128.912 144.509C123.582 147.241 118.252 149.783 112.974 152.124C112.892 152.161 112.811 152.196 112.729 152.233C112.326 152.411 111.921 152.592 111.518 152.768C111.514 152.767 111.512 152.766 111.509 152.765C107.136 154.678 102.804 156.447 98.5442 158.063C98.5451 158.064 98.5451 158.066 98.5461 158.067C98.3053 158.158 98.0664 158.246 97.8265 158.336C97.5272 158.449 97.2278 158.561 96.9294 158.672C96.2145 158.937 95.5025 159.198 94.7924 159.455C94.5969 159.525 94.4005 159.599 94.205 159.668C93.3429 159.978 92.4854 160.278 91.6308 160.574C91.5241 160.61 91.4174 160.65 91.3116 160.686C91.3097 160.685 91.3088 160.685 91.3079 160.684C82.1792 163.828 73.4829 166.202 65.5582 167.677C46.4084 171.241 37.3911 168.507 35.3373 164.761ZM49.0912 25.6774C65.2995 14.456 84.6675 8.40119 105 8.40119C110.366 8.40119 115.664 8.82573 120.855 9.65379C122.245 9.87565 122.711 11.5911 121.602 12.432C116.572 16.2446 111.899 21.8858 107.763 29.2015C106.753 30.9864 104.612 31.8592 102.588 31.3077C88.8847 27.5782 75.4028 25.8235 62.9463 26.2462C58.3513 26.4023 53.9998 26.8524 49.9119 27.581C48.7636 27.7855 48.1422 26.3338 49.0912 25.6774ZM181.294 93.5388C181.265 92.4715 182.682 92.016 183.322 92.8851C184.109 93.9524 184.867 95.0251 185.593 96.1033C186.558 97.5367 187.456 98.9619 188.291 100.378C188.811 101.261 188.687 102.368 187.979 103.119C186.854 104.313 185.634 105.547 184.309 106.827C183.825 107.294 183.332 107.761 182.83 108.229C182.207 108.812 181.161 108.368 181.195 107.53C181.257 106.003 181.302 104.47 181.331 102.93C181.389 99.7744 181.375 96.642 181.294 93.5388ZM171.306 33.9818C171.911 34.5369 172.51 35.1011 173.102 35.6736C182.383 44.6463 189.531 55.1309 194.311 66.5494C194.794 67.7007 193.782 68.9058 192.518 68.6858C189.752 68.2056 186.639 67.991 183.194 68.0467C180.806 68.0851 178.73 66.4673 178.311 64.194C176.438 54.0426 173.731 44.6655 170.254 36.4815C170.055 36.015 169.855 35.554 169.652 35.0975C169.21 34.1014 170.493 33.235 171.306 33.9818ZM207.732 80.4011C203.582 61.3409 193.826 43.8283 179.245 29.7319C159.414 10.5585 133.047 0 105 0C76.9533 0 50.5851 10.5585 30.7535 29.7319C25.93 34.3954 21.64 39.4341 17.8995 44.7768C16.7871 46.2084 15.7909 47.7203 14.9051 49.3024C5.18904 64.9116 0 82.8278 0 101.515C0 128.631 10.9219 154.123 30.7535 173.296C50.5851 192.47 76.9533 203.03 105 203.03C133.047 203.03 159.414 192.47 179.245 173.296C188.606 164.248 195.978 153.791 201.156 142.42C201.789 141.16 202.342 139.87 202.817 138.555C207.531 126.909 210 114.396 210 101.515C210 94.4244 209.246 87.4483 207.789 80.664C207.769 80.5764 207.752 80.4887 207.732 80.4011Z" fill="white"/>
<g clip-path="url(#clip0_31_103)">
<path d="M329.63 45.1C329.63 40.19 326.46 37.22 321.55 37.22C316.64 37.22 313.47 40.19 313.47 45.1V75.68H290.87V45.1C290.87 40.19 287.7 37.22 282.79 37.22C277.88 37.22 274.71 40.19 274.71 45.1V75.68H252V18H274.7V25.77C277.77 21.27 283.29 17.59 291.37 17.59C299.45 17.59 306.3 21.37 310.09 27.92C313.98 22.4 320.52 17.59 329.01 17.59C343.94 17.59 352.23 27.31 352.23 42.24V75.68H329.63V45.1Z" fill="white"/>
<path d="M389.45 76.4C372.06 76.4 358.97 65.25 358.97 46.84C358.97 28.43 372.06 17.28 389.45 17.28C406.84 17.28 419.93 28.43 419.93 46.84C419.93 65.25 406.84 76.4 389.45 76.4ZM389.45 56.76C393.44 56.76 396.92 53.69 396.92 46.84C396.92 39.99 393.44 36.92 389.45 36.92C385.46 36.92 381.98 39.99 381.98 46.84C381.98 53.69 385.36 56.76 389.45 56.76Z" fill="white"/>
<path d="M447.84 17.28C455.51 17.28 460.93 20.66 463.69 25.87V0H486.39V75.68H463.69V67.8C460.93 73.02 455.51 76.39 447.84 76.39C434.54 76.39 424.01 65.45 424.01 46.83C424.01 28.21 434.54 17.27 447.84 17.27V17.28ZM455.41 37.13C450.71 37.13 447.02 40.5 447.02 46.85C447.02 53.2 450.7 56.57 455.41 56.57C460.12 56.57 463.8 53.19 463.8 46.85C463.8 40.51 460.12 37.13 455.41 37.13Z" fill="white"/>
<path d="M557.68 75.68H534.98V66.88C531.71 71.89 525.98 76.08 517.29 76.08C503.99 76.08 496.22 66.36 496.22 51.43V18H518.82V48.58C518.82 54.1 521.99 57.48 526.9 57.48C531.81 57.48 534.98 54.11 534.98 48.58V18H557.68V75.68Z" fill="white"/>
<path d="M567.9 0H590.6V75.68H567.9V0Z" fill="white"/>
<path d="M621.59 17.28C629.26 17.28 634.78 20.66 637.55 25.87V17.99H660.15V75.67H637.55V67.79C634.79 73.01 629.27 76.38 621.59 76.38C608.29 76.38 597.76 65.44 597.76 46.82C597.76 28.2 608.29 17.26 621.59 17.26V17.28ZM629.16 37.13C624.46 37.13 620.77 40.5 620.77 46.85C620.77 53.2 624.45 56.57 629.16 56.57C633.87 56.57 637.55 53.19 637.55 46.85C637.55 40.51 633.87 37.13 629.16 37.13Z" fill="white"/>
<path d="M693.08 75.68H670.38V18H693.08V28.64C697.58 22.2 704.53 17.59 712 17.59V41.83H705.56C697.38 41.83 693.08 44.18 693.08 52.06V75.69V75.68Z" fill="white"/>
<path d="M273.4 125.78C280.29 125.78 285.25 128.81 287.73 133.5V126.43H308.03V178.24H287.73V171.17C285.25 175.85 280.29 178.89 273.4 178.89C261.46 178.89 252 169.06 252 152.34C252 135.62 261.46 125.79 273.4 125.79V125.78ZM280.2 143.6C275.97 143.6 272.67 146.63 272.67 152.33C272.67 158.03 275.98 161.06 280.2 161.06C284.42 161.06 287.73 158.03 287.73 152.33C287.73 146.63 284.42 143.6 280.2 143.6Z" fill="white"/>
<path d="M340.91 125.78C354.23 125.78 364.24 133.68 366.72 147.27H345.13C344.4 144.79 343.02 143.23 340.45 143.23C337.33 143.23 335.12 146.08 335.12 152.32C335.12 158.56 337.32 161.41 340.45 161.41C343.02 161.41 344.4 159.85 345.13 157.37H366.72C364.24 170.96 354.23 178.86 340.91 178.86C325.39 178.86 314.46 168.85 314.46 152.31C314.46 135.77 325.39 125.76 340.91 125.76V125.78Z" fill="white"/>
<path d="M391.8 125.78C398.69 125.78 403.65 128.81 406.13 133.5V126.43H426.43V178.24H406.13V171.17C403.65 175.85 398.69 178.89 391.8 178.89C379.86 178.89 370.4 169.06 370.4 152.34C370.4 135.62 379.86 125.79 391.8 125.79V125.78ZM398.6 143.6C394.37 143.6 391.07 146.63 391.07 152.33C391.07 158.03 394.38 161.06 398.6 161.06C402.82 161.06 406.13 158.03 406.13 152.33C406.13 146.63 402.82 143.6 398.6 143.6Z" fill="white"/>
<path d="M454.26 125.78C461.15 125.78 466.02 128.81 468.5 133.5V110.26H488.89V178.23H468.5V171.16C466.02 175.84 461.15 178.88 454.26 178.88C442.32 178.88 432.86 169.05 432.86 152.33C432.86 135.61 442.32 125.78 454.26 125.78ZM461.06 143.6C456.83 143.6 453.53 146.63 453.53 152.33C453.53 158.03 456.84 161.06 461.06 161.06C465.28 161.06 468.59 158.03 468.59 152.33C468.59 146.63 465.28 143.6 461.06 143.6Z" fill="white"/>
<path d="M521.77 178.87C506.25 178.87 495.32 168.86 495.32 152.32C495.32 135.78 506.25 125.77 521.77 125.77C537.29 125.77 548.23 135.6 548.23 151.86C548.23 153.15 548.14 154.62 547.95 155.9H515.25C515.53 161.14 518.01 162.61 520.76 162.61C523.51 162.61 524.8 161.14 525.54 159.58H547.13C544.93 170.6 534.82 178.87 521.78 178.87H521.77ZM515.43 147H527.56C527.56 143.42 524.8 141.76 521.77 141.76C518.37 141.76 516.08 143.41 515.43 147Z" fill="white"/>
<path d="M624.37 150.76C624.37 146.35 621.52 143.69 617.11 143.69C612.7 143.69 609.85 146.35 609.85 150.76V178.23H589.55V150.76C589.55 146.35 586.7 143.69 582.29 143.69C577.88 143.69 575.03 146.35 575.03 150.76V178.23H554.64V126.42H575.03V133.4C577.79 129.36 582.75 126.05 590 126.05C597.25 126.05 603.41 129.45 606.81 135.33C610.3 130.37 616.18 126.05 623.8 126.05C637.21 126.05 644.65 134.78 644.65 148.19V178.23H624.35V150.76H624.37Z" fill="white"/>
<path d="M689.5 126.42H712L678.84 203.03H656.52L669.56 175.66L647.97 126.42H670.66L680.4 152.69L689.49 126.42H689.5Z" fill="white"/>
</g>
<defs>
<clipPath id="clip0_31_103">
<rect width="460" height="203.03" fill="white" transform="translate(252)"/>
</clipPath>
</defs>
</svg>
