<svg width="939" height="266" viewBox="0 0 939 266" fill="none" xmlns="http://www.w3.org/2000/svg">
<path fill-rule="evenodd" clip-rule="evenodd" d="M262.895 136.215C262.869 137.037 261.712 137.254 261.377 136.497C261.234 136.17 261.088 135.842 260.938 135.514C260.666 134.914 260.742 134.216 261.149 133.692C261.233 133.584 261.405 133.367 261.609 133.109C262.159 132.413 262.953 132.517 262.953 133.289C262.953 134.301 262.928 135.178 262.895 136.215ZM256.806 120.14C255.869 121.772 253.465 121.848 252.424 120.273C252.262 120.03 252.099 119.787 251.935 119.542C248.183 113.972 243.865 108.504 239.042 103.19C237.857 101.886 238.826 99.838 240.622 99.8368H240.665C251.935 99.8368 257.844 102.528 259.647 105.815C261.152 108.564 260.69 113.371 256.806 120.14ZM254.287 177.122C253.683 178.609 253.05 180.086 252.385 181.549C252.282 181.751 252.184 181.955 252.077 182.155C247.929 189.875 240.968 195.953 231.667 200.183C229.58 201.131 227.296 199.285 227.918 197.138C231.007 186.451 233.344 174.861 234.859 162.71C235.141 160.444 236.297 158.364 238.083 156.871C241.908 153.672 245.48 150.477 248.766 147.305L248.802 147.269C250.419 145.709 253.177 146.38 253.836 148.496C257.083 158.929 257.263 168.647 254.287 177.122ZM229.004 215.707C228.058 216.685 227.092 217.651 226.107 218.603C224.393 220.258 222.638 221.86 220.844 223.406C219.713 224.381 218.002 223.162 218.642 221.833C218.825 221.454 219.006 221.073 219.186 220.687C219.94 219.081 220.668 217.433 221.376 215.754C221.544 215.358 221.896 215.062 222.326 214.956C224.109 214.518 225.848 214.035 227.542 213.507C228.915 213.08 229.99 214.689 229.004 215.707ZM210.436 206.06C206.681 206.586 202.733 206.926 198.602 207.066C188.523 207.407 177.866 206.567 166.919 204.618C165.584 204.381 165.328 202.636 166.538 202.044C168.926 200.876 171.315 199.681 173.703 198.457C190.454 189.873 206.083 180.491 219.765 170.87C220.791 170.149 222.205 171 221.996 172.211C220.099 183.236 217.472 193.614 214.172 203.035C213.61 204.641 212.172 205.816 210.436 206.06ZM206.564 220.748C197.583 237.825 186.523 247.413 175.801 247.22C164.149 247.02 152.529 235.288 143.925 215.035L143.915 215.012C143.368 213.727 143.996 212.255 145.313 211.702C145.405 211.662 145.496 211.624 145.587 211.585C146.152 211.347 146.786 211.304 147.381 211.467C163.476 215.834 179.335 218.113 194.194 218.113C195.808 218.113 197.412 218.086 199.002 218.033C200.863 217.968 202.695 217.867 204.494 217.729C206.163 217.601 207.324 219.305 206.564 220.748ZM153.382 253.223C148.042 253.886 142.623 254.226 137.152 254.226C112.699 254.226 89.3111 247.527 69.2313 235.025C67.8498 234.164 68.437 232.092 70.0788 232.019C70.4192 232.003 70.7374 231.987 71.0174 231.97C76.1203 231.649 81.7154 230.926 87.7779 229.797C100.674 227.399 115.009 223.285 130.02 217.744C131.365 217.248 132.868 217.893 133.415 219.181C133.419 219.19 133.422 219.197 133.425 219.204C139.242 232.897 146.401 243.243 154.44 249.825C155.768 250.913 155.108 253.009 153.382 253.223ZM80.6324 168.005C91.7177 159.278 104.706 150.57 118.954 142.326C119.26 159.944 121.258 176.859 124.795 192.138C119.51 189.959 114.242 187.56 109.02 184.937C98.9039 179.855 89.3864 174.162 80.6324 168.005ZM46.1579 215.212C43.5133 210.389 46.9314 199.215 64.295 182.232L64.3037 182.223C66.1169 180.452 65.9429 177.546 63.9188 176.004C63.2231 175.476 62.5324 174.942 61.8466 174.407C60.1172 173.056 57.6145 173.18 56.0443 174.701C55.7001 175.033 55.4436 175.284 55.3684 175.359C46.6884 183.973 40.6135 191.946 37.2103 199.118C36.2457 201.15 33.3322 201.369 32.0568 199.504C18.586 179.817 11.3504 156.747 11.3504 132.599C11.3504 123.967 12.278 115.471 14.0826 107.219C14.3552 105.97 16.177 105.89 16.5594 107.111C19.1694 115.442 23.4176 124.06 29.2877 132.774C37.1893 144.506 47.6098 155.784 59.9581 166.129C64.1729 169.66 68.6245 173.075 73.2673 176.37C82.6787 183.047 92.9055 189.209 103.786 194.675C108.609 197.098 113.306 199.41 118.117 201.504C120.794 202.669 123.842 202.76 126.576 201.722C128.844 200.864 131.128 199.971 133.426 199.042C135.925 198.034 137.281 195.4 136.619 192.861C136.536 192.543 136.471 192.288 136.434 192.138C132.646 176.726 130.54 159.375 130.292 141.202L130.285 141.206C130.282 140.99 130.284 140.771 130.281 140.552C130.27 139.559 130.276 138.559 130.258 137.568C130.251 137.251 130.261 136.716 130.265 136.399C130.268 136.272 130.265 136.147 130.265 136.022C130.266 136.022 130.269 136.021 130.27 136.021C130.276 134.883 130.285 133.747 130.306 132.605C130.364 129.488 130.48 126.393 130.646 123.324C130.644 123.325 130.642 123.326 130.64 123.327C131.808 101.398 135.654 80.792 141.773 63.4585C142.34 61.8545 141.455 60.1134 139.796 59.566C138.179 59.0318 136.563 58.5214 134.95 58.0324C133.318 57.5375 131.574 58.389 131.022 59.9548C124.39 78.779 120.297 101.112 119.206 124.744C119.066 127.742 117.379 130.471 114.708 132.001C100.231 140.296 86.9355 149.09 75.4493 157.954C73.0564 159.801 69.6384 159.731 67.3244 157.791C55.8124 148.141 46.1234 137.659 38.799 126.785C24.4056 105.417 20.9851 85.2867 29.1705 70.1128C29.1927 70.0771 29.2125 70.0401 29.2334 70.0055C30.2769 68.3312 31.3624 66.6795 32.4923 65.0505C41.8975 53.0142 59.403 46.0391 82.6195 45.2508C84.0886 45.2007 85.5676 45.1757 87.0601 45.1757C101.301 45.1757 116.583 47.4475 132.126 51.7835L132.13 51.78C132.471 51.8754 132.811 51.9743 133.151 52.0709C133.414 52.1461 133.677 52.2164 133.94 52.2928C133.94 52.2916 133.938 52.2939 133.94 52.2928C137.531 53.3303 141.133 54.4811 144.74 55.7356C144.74 55.7368 144.741 55.7344 144.74 55.7356C144.824 55.7642 144.909 55.794 144.993 55.8227C145.933 56.1506 146.871 56.4869 147.81 56.8292C148.104 56.9365 148.398 57.045 148.692 57.1547C148.974 57.2597 149.257 57.361 149.541 57.4672L149.537 57.4719C157.128 60.3126 164.712 63.6159 172.202 67.3795C186.699 74.6612 199.969 83.1974 211.517 92.5624C189.478 97.4434 163.861 106.86 138.105 119.555C136.917 120.142 136.135 121.297 136.06 122.584C135.97 124.128 135.851 127.231 135.766 129.697C135.713 131.245 137.407 132.27 138.825 131.55L138.84 131.542C164.341 118.595 189.791 108.919 211.647 103.806C215.733 102.85 218.377 99.0569 217.804 95.0321C217.402 92.2201 216.949 89.4522 216.448 86.7332C215.819 83.3178 213.885 80.2637 211.031 78.1625C200.794 70.6233 189.513 63.7077 177.436 57.6401C169.297 53.5521 161.039 49.9697 152.764 46.9144C150.994 46.2609 150.235 44.2384 151.159 42.6392C159.685 27.8934 169.825 19.6351 179.704 19.6351C179.806 19.6351 179.909 19.6351 180.011 19.6375C191.664 19.8391 203.283 31.57 211.888 51.8229C216.243 62.0751 219.618 73.898 221.925 86.7464C221.912 86.7356 221.9 86.7261 221.889 86.7153C222.873 92.1986 223.666 97.8656 224.255 103.679C224.204 103.71 224.15 103.738 224.099 103.769C224.168 103.837 224.241 103.905 224.311 103.974C225.287 113.729 225.699 123.887 225.507 134.252C225.386 140.809 225.024 147.275 224.44 153.601C208.85 165.782 189.574 177.904 168.387 188.76C161.424 192.328 154.462 195.649 147.568 198.707C147.461 198.754 147.355 198.801 147.248 198.848C146.721 199.081 146.193 199.317 145.666 199.547C145.661 199.546 145.658 199.545 145.654 199.544C139.942 202.042 134.284 204.353 128.719 206.464C128.721 206.465 128.721 206.468 128.722 206.469C128.407 206.588 128.095 206.702 127.782 206.821C127.391 206.968 127 207.114 126.61 207.259C125.676 207.605 124.746 207.946 123.819 208.281C123.564 208.373 123.307 208.47 123.052 208.56C121.925 208.965 120.805 209.357 119.689 209.743C119.55 209.791 119.41 209.842 119.272 209.89C119.27 209.889 119.269 209.889 119.267 209.888C107.343 213.994 95.9842 217.095 85.6329 219.021C60.6192 223.677 48.8407 220.105 46.1579 215.212ZM64.1235 33.5401C85.2949 18.8826 110.594 10.9737 137.152 10.9737C144.161 10.9737 151.081 11.5283 157.862 12.6099C159.677 12.8997 160.287 15.1405 158.839 16.2388C152.268 21.2188 146.163 28.5875 140.761 38.1433C139.442 40.4747 136.646 41.6148 134.001 40.8945C116.102 36.023 98.4919 33.7309 82.2211 34.2831C76.219 34.487 70.5352 35.0749 65.1954 36.0265C63.6955 36.2937 62.8839 34.3975 64.1235 33.5401ZM236.808 122.181C236.771 120.787 238.621 120.192 239.457 121.328C240.485 122.722 241.475 124.123 242.424 125.531C243.685 127.404 244.857 129.265 245.948 131.115C246.628 132.268 246.465 133.714 245.54 134.695C244.071 136.255 242.477 137.867 240.746 139.539C240.115 140.148 239.471 140.759 238.815 141.371C238.001 142.131 236.635 141.552 236.68 140.457C236.76 138.462 236.819 136.46 236.856 134.448C236.932 130.326 236.914 126.235 236.808 122.181ZM223.761 44.3874C224.552 45.1125 225.334 45.8495 226.107 46.5972C238.23 58.3175 247.567 72.0126 253.811 86.9276C254.442 88.4314 253.121 90.0055 251.469 89.7181C247.856 89.0909 243.791 88.8106 239.29 88.8834C236.17 88.9335 233.459 86.8203 232.911 83.8509C230.465 70.5911 226.929 58.3425 222.387 47.6526C222.128 47.0432 221.867 46.441 221.602 45.8447C221.024 44.5436 222.699 43.4119 223.761 44.3874ZM271.342 105.021C265.922 80.1242 253.177 57.2489 234.132 38.8362C208.228 13.7917 173.787 0 137.152 0C100.517 0 66.0749 13.7917 40.1706 38.8362C33.87 44.9276 28.2664 51.5093 23.3806 58.488C21.9275 60.3579 20.6262 62.3327 19.4692 64.3994C6.77797 84.7882 0 108.191 0 132.599C0 168.019 14.2664 201.317 40.1706 226.361C66.0749 251.406 100.517 265.2 137.152 265.2C173.787 265.2 208.228 251.406 234.132 226.361C246.359 214.542 255.988 200.883 262.753 186.031C263.579 184.385 264.301 182.7 264.921 180.982C271.079 165.77 274.304 149.425 274.304 132.599C274.304 123.338 273.32 114.226 271.417 105.364C271.391 105.25 271.367 105.135 271.342 105.021Z" fill="black"/>
<path d="M432.72 52.87C432.72 47.11 429 43.63 423.24 43.63C417.36 43.63 413.76 47.11 413.76 52.87V88.75H387.23V52.87C387.24 47.11 383.52 43.63 377.76 43.63C372 43.63 368.28 47.11 368.28 52.87V88.75H341.63L341.65 21.07H368.29V30.2C371.89 24.92 378.37 20.6 387.85 20.61C397.33 20.62 405.37 25.05 409.81 32.74C414.37 26.26 422.05 20.62 432.01 20.63C449.53 20.63 459.24 32.04 459.24 49.56V88.8H432.71V52.92L432.72 52.87Z" fill="black"/>
<path d="M502.91 89.61C482.51 89.61 467.16 76.52 467.16 54.92C467.16 33.32 482.53 20.25 502.93 20.25C523.33 20.25 538.68 33.34 538.68 54.94C538.68 76.54 523.31 89.61 502.91 89.61ZM502.92 66.57C507.6 66.57 511.68 62.97 511.68 54.93C511.68 46.89 507.6 43.29 502.92 43.29C498.24 43.29 494.16 46.89 494.16 54.93C494.16 62.97 498.12 66.57 502.92 66.57Z" fill="black"/>
<path d="M571.45 20.27C580.45 20.27 586.81 24.23 590.05 30.36V0H616.7L616.67 88.8H590.03V79.55C586.79 85.67 580.43 89.63 571.43 89.62C555.83 89.62 543.48 76.77 543.48 54.93C543.48 33.09 555.85 20.25 571.45 20.26V20.27ZM580.32 43.55C574.8 43.55 570.48 47.51 570.48 54.95C570.48 62.39 574.8 66.35 580.32 66.35C585.84 66.35 590.16 62.39 590.16 54.95C590.16 47.51 585.84 43.55 580.32 43.55Z" fill="black"/>
<path d="M700.31 88.83H673.67V78.5C669.83 84.38 663.11 89.3 652.91 89.29C637.31 89.29 628.19 77.88 628.2 60.36V21.13H654.73V57.01C654.72 63.49 658.44 67.45 664.2 67.45C669.96 67.45 673.68 63.49 673.68 57.01V21.14H700.33L700.31 88.82V88.83Z" fill="black"/>
<path d="M712.33 0.0300293H738.97L738.94 88.83H712.3L712.33 0.0300293Z" fill="black"/>
<path d="M775.33 20.33C784.33 20.33 790.81 24.29 794.05 30.42V21.18H820.57L820.55 88.86H794.03V79.61C790.79 85.73 784.31 89.69 775.31 89.68C759.71 89.68 747.36 76.83 747.36 54.99C747.36 33.15 759.73 20.31 775.33 20.32V20.33ZM784.2 43.61C778.68 43.61 774.36 47.57 774.36 55.01C774.36 62.45 778.68 66.41 784.2 66.41C789.72 66.41 794.04 62.45 794.04 55.01C794.04 47.57 789.72 43.61 784.2 43.61Z" fill="black"/>
<path d="M859.19 88.87H832.55L832.57 21.18H859.21V33.67C864.49 26.11 872.65 20.71 881.41 20.72V49.16H873.84C864.24 49.16 859.2 51.92 859.2 61.16V88.88L859.19 88.87Z" fill="black"/>
<path d="M365.97 164.21C374.97 164.21 381.45 168.17 384.69 174.3V165.06H411.21L411.19 232.74H384.67V223.49C381.43 229.61 374.95 233.57 365.95 233.56C350.35 233.56 337.99 220.71 338 198.87C338.01 177.03 350.37 164.19 365.97 164.2V164.21ZM374.84 187.49C369.32 187.49 365 191.45 365 198.89C365 206.33 369.32 210.29 374.84 210.29C380.36 210.29 384.68 206.33 384.68 198.89C384.68 191.45 380.36 187.49 374.84 187.49Z" fill="black"/>
<path d="M454.17 164.23C471.57 164.23 484.65 174.56 487.88 192.32H459.68C458.72 189.07 456.92 187.03 453.56 187.03C449.48 187.03 446.6 190.75 446.6 198.91C446.6 207.07 449.48 210.79 453.56 210.79C456.92 210.79 458.72 208.75 459.68 205.51H487.88C484.64 223.28 471.55 233.59 454.15 233.59C433.87 233.59 419.6 220.5 419.6 198.9C419.6 177.3 433.89 164.23 454.17 164.23Z" fill="black"/>
<path d="M520.65 164.25C529.65 164.25 536.13 168.21 539.37 174.34V165.1H565.89L565.87 232.78H539.35V223.53C536.11 229.65 529.63 233.61 520.63 233.6C505.03 233.6 492.68 220.75 492.68 198.91C492.68 177.07 505.05 164.23 520.65 164.24V164.25ZM529.52 187.54C524 187.54 519.68 191.5 519.68 198.94C519.68 206.38 524 210.34 529.52 210.34C535.04 210.34 539.36 206.38 539.36 198.94C539.36 191.5 535.04 187.54 529.52 187.54Z" fill="black"/>
<path d="M602.25 164.28C611.25 164.28 617.61 168.24 620.85 174.37V144.01H647.5L647.47 232.81H620.83V223.56C617.59 229.68 611.23 233.64 602.23 233.63C586.63 233.63 574.27 220.78 574.28 198.94C574.29 177.1 586.65 164.26 602.25 164.27V164.28ZM611.12 187.56C605.6 187.56 601.28 191.52 601.28 198.96C601.28 206.4 605.6 210.36 611.12 210.36C616.64 210.36 620.96 206.4 620.96 198.96C620.96 191.52 616.64 187.56 611.12 187.56Z" fill="black"/>
<path d="M690.43 233.66C670.15 233.66 655.88 220.57 655.88 198.97C655.88 177.37 670.17 164.3 690.45 164.3C710.73 164.3 725 177.15 725 198.39C725 200.07 724.88 201.99 724.64 203.67H681.92C682.28 210.5 685.52 212.42 689.12 212.42C692.72 212.42 694.4 210.5 695.36 208.46H723.56C720.68 222.87 707.47 233.66 690.43 233.66ZM682.16 192.02H698C698 187.34 694.4 185.18 690.44 185.18C686 185.18 683 187.34 682.16 192.02Z" fill="black"/>
<path d="M824.47 196.98C824.47 191.22 820.75 187.74 814.99 187.74C809.11 187.74 805.51 191.22 805.51 196.98V232.86H778.98V196.98C778.99 191.22 775.27 187.74 769.51 187.74C763.75 187.74 760.03 191.22 760.03 196.98V232.86H733.38L733.4 165.18H760.04V174.31C763.64 169.03 770.12 164.71 779.6 164.72C789.44 164.72 797.12 169.16 801.56 176.85C806.12 170.37 813.8 164.73 823.76 164.74C841.28 164.74 850.99 176.15 850.99 193.67V232.91H824.46V197.03L824.47 196.98Z" fill="black"/>
<path d="M909.56 165.21H938.96L895.61 265.28H866.45L883.5 229.52L855.32 165.19H884.96L897.67 199.52L909.56 165.2V165.21Z" fill="black"/>
</svg>
