<svg width="1076" height="347" viewBox="0 0 1076 347" fill="none" xmlns="http://www.w3.org/2000/svg">
<path fill-rule="evenodd" clip-rule="evenodd" d="M326.952 179.183C326.919 180.24 325.48 180.519 325.065 179.545C324.887 179.125 324.704 178.703 324.519 178.281C324.18 177.509 324.275 176.612 324.781 175.937C324.885 175.799 325.098 175.52 325.353 175.187C326.037 174.293 327.024 174.426 327.024 175.418C327.024 176.721 326.993 177.848 326.952 179.183ZM319.38 158.504C318.214 160.604 315.224 160.701 313.929 158.676C313.728 158.363 313.526 158.05 313.322 157.736C308.655 150.57 303.285 143.537 297.287 136.701C295.814 135.023 297.018 132.389 299.252 132.388H299.305C313.322 132.388 320.67 135.85 322.913 140.078C324.784 143.614 324.21 149.797 319.38 158.504ZM316.247 231.803C315.496 233.716 314.709 235.617 313.882 237.499C313.753 237.758 313.632 238.021 313.498 238.278C308.339 248.208 299.683 256.027 288.115 261.468C285.519 262.688 282.68 260.313 283.453 257.552C287.294 243.804 290.201 228.895 292.085 213.264C292.436 210.35 293.873 207.674 296.095 205.754C300.852 201.638 305.294 197.528 309.381 193.448L309.425 193.402C311.436 191.395 314.867 192.259 315.686 194.98C319.723 208.402 319.947 220.902 316.247 231.803ZM284.803 281.438C283.626 282.696 282.425 283.939 281.201 285.163C279.068 287.292 276.886 289.352 274.655 291.342C273.248 292.595 271.121 291.027 271.917 289.318C272.144 288.831 272.369 288.34 272.593 287.844C273.531 285.778 274.436 283.658 275.316 281.498C275.525 280.989 275.964 280.608 276.497 280.472C278.716 279.909 280.879 279.287 282.985 278.608C284.692 278.059 286.03 280.128 284.803 281.438ZM261.711 269.028C257.041 269.704 252.131 270.142 246.994 270.323C234.459 270.761 221.205 269.68 207.591 267.173C205.931 266.868 205.612 264.624 207.117 263.863C210.086 262.359 213.058 260.822 216.028 259.248C236.86 248.206 256.297 236.137 273.313 223.762C274.589 222.834 276.347 223.929 276.088 225.486C273.729 239.668 270.461 253.019 266.358 265.138C265.658 267.202 263.869 268.715 261.711 269.028ZM256.896 287.922C245.726 309.89 231.971 322.223 218.637 321.975C204.145 321.717 189.695 306.625 178.993 280.573L178.981 280.544C178.301 278.89 179.082 276.997 180.721 276.285C180.834 276.235 180.948 276.186 181.061 276.135C181.764 275.83 182.552 275.774 183.292 275.983C203.309 281.601 223.032 284.532 241.511 284.532C243.519 284.532 245.513 284.498 247.491 284.429C249.805 284.347 252.083 284.216 254.322 284.038C256.397 283.874 257.841 286.066 256.896 287.922ZM190.755 329.697C184.114 330.55 177.375 330.987 170.57 330.987C140.159 330.987 111.073 322.369 86.1002 306.288C84.3821 305.18 85.1124 302.514 87.1542 302.421C87.5776 302.401 87.9733 302.379 88.3216 302.358C94.6678 301.945 101.626 301.015 109.166 299.563C125.204 296.478 143.033 291.185 161.7 284.058C163.374 283.42 165.242 284.25 165.923 285.907C165.928 285.917 165.931 285.927 165.936 285.936C173.17 303.55 182.074 316.859 192.071 325.325C193.723 326.726 192.902 329.421 190.755 329.697ZM100.279 220.076C114.066 208.85 130.219 197.648 147.938 187.043C148.319 209.707 150.804 231.466 155.202 251.12C148.63 248.317 142.078 245.23 135.583 241.857C123.003 235.319 111.166 227.996 100.279 220.076ZM57.4048 280.801C54.1158 274.596 58.3667 260.223 79.9612 238.376L79.9719 238.366C82.2269 236.088 82.0105 232.349 79.4932 230.366C78.628 229.686 77.769 228.999 76.9161 228.312C74.7654 226.574 71.6529 226.733 69.7 228.689C69.272 229.117 68.953 229.439 68.8594 229.536C58.0645 240.616 50.5094 250.873 46.277 260.098C45.0774 262.712 41.4539 262.994 39.8678 260.595C23.1147 235.27 14.1161 205.594 14.1161 174.532C14.1161 163.427 15.2697 152.499 17.514 141.883C17.853 140.277 20.1187 140.174 20.5943 141.745C23.8403 152.462 29.1235 163.547 36.4239 174.756C46.2509 189.848 59.2104 204.355 74.5675 217.662C79.8093 222.205 85.3456 226.598 91.1196 230.837C102.824 239.426 115.543 247.352 129.074 254.382C135.073 257.5 140.914 260.474 146.897 263.168C150.227 264.667 154.018 264.783 157.417 263.449C160.238 262.344 163.079 261.195 165.937 260C169.045 258.704 170.731 255.315 169.907 252.049C169.804 251.641 169.723 251.313 169.677 251.12C164.966 231.294 162.348 208.975 162.039 185.598L162.03 185.603C162.027 185.325 162.028 185.043 162.025 184.762C162.012 183.484 162.019 182.197 161.996 180.923C161.989 180.516 162.001 179.827 162.005 179.419C162.009 179.257 162.005 179.096 162.005 178.934C162.007 178.934 162.01 178.933 162.012 178.933C162.019 177.469 162.03 176.008 162.056 174.539C162.128 170.53 162.272 166.549 162.479 162.6C162.476 162.602 162.475 162.603 162.472 162.605C163.925 134.396 168.708 107.889 176.318 85.592C177.022 83.5288 175.922 81.2891 173.859 80.585C171.848 79.8977 169.838 79.2412 167.832 78.6122C165.802 77.9756 163.633 79.0709 162.947 81.0851C154.699 105.3 149.609 134.027 148.251 164.427C148.078 168.284 145.98 171.794 142.658 173.762C124.653 184.432 108.118 195.744 93.8334 207.147C90.8573 209.523 86.6065 209.432 83.7287 206.937C69.4116 194.523 57.3619 181.041 48.2528 167.052C30.3523 139.565 26.0984 113.671 36.2782 94.1519C36.3058 94.1059 36.3304 94.0583 36.3565 94.0139C37.6542 91.8601 39.0042 89.7355 40.4093 87.64C52.1063 72.157 73.8772 63.1845 102.751 62.1705C104.578 62.1061 106.417 62.0739 108.273 62.0739C125.983 62.0739 144.99 64.9962 164.32 70.5739L164.325 70.5693C164.748 70.6921 165.172 70.8194 165.595 70.9436C165.922 71.0403 166.249 71.1308 166.575 71.229C166.575 71.2274 166.574 71.2305 166.575 71.229C171.042 72.5636 175.522 74.0439 180.007 75.6577C180.007 75.6592 180.009 75.6562 180.007 75.6577C180.112 75.6945 180.217 75.7329 180.322 75.7697C181.491 76.1915 182.658 76.6241 183.825 77.0644C184.191 77.2025 184.557 77.3421 184.922 77.4832C185.274 77.6182 185.625 77.7486 185.978 77.8851L185.973 77.8912C195.413 81.5453 204.846 85.7945 214.161 90.6359C232.19 100.003 248.693 110.983 263.055 123.03C235.646 129.309 203.788 141.421 171.756 157.753C170.278 158.507 169.306 159.992 169.212 161.649C169.1 163.634 168.953 167.626 168.847 170.798C168.781 172.789 170.887 174.108 172.652 173.182L172.67 173.171C204.384 156.518 236.036 144.071 263.217 137.493C268.298 136.264 271.587 131.384 270.874 126.207C270.374 122.59 269.811 119.029 269.188 115.532C268.406 111.138 266 107.21 262.45 104.507C249.72 94.8085 235.689 85.9127 220.67 78.1075C210.548 72.8489 200.278 68.2407 189.986 64.3105C187.785 63.4698 186.841 60.8681 187.99 58.811C198.593 39.8428 211.205 29.2196 223.491 29.2196C223.618 29.2196 223.745 29.2197 223.873 29.2227C238.365 29.482 252.815 44.5722 263.517 70.6246C268.933 83.8126 273.13 99.0209 275.999 115.549C275.984 115.535 275.968 115.522 275.954 115.509C277.179 122.562 278.165 129.852 278.897 137.33C278.834 137.37 278.766 137.405 278.703 137.445C278.789 137.533 278.88 137.62 278.967 137.709C280.181 150.257 280.693 163.324 280.454 176.658C280.303 185.092 279.854 193.41 279.127 201.548C259.738 217.216 235.766 232.809 209.416 246.774C200.756 251.364 192.098 255.636 183.525 259.569C183.391 259.63 183.259 259.69 183.126 259.752C182.471 260.051 181.814 260.354 181.159 260.651C181.153 260.649 181.149 260.647 181.144 260.646C174.04 263.86 167.003 266.833 160.083 269.548C160.085 269.549 160.085 269.552 160.086 269.554C159.695 269.707 159.307 269.855 158.917 270.007C158.431 270.197 157.945 270.384 157.46 270.571C156.299 271.016 155.142 271.455 153.989 271.886C153.671 272.004 153.352 272.128 153.034 272.245C151.634 272.765 150.241 273.269 148.853 273.766C148.679 273.828 148.506 273.894 148.334 273.955C148.331 273.954 148.33 273.954 148.328 273.952C133.499 279.234 119.372 283.224 106.498 285.701C75.3897 291.69 60.7413 287.096 57.4048 280.801ZM79.7478 47.1064C106.078 28.2517 137.541 18.078 170.57 18.078C179.288 18.078 187.894 18.7913 196.326 20.1827C198.584 20.5555 199.342 23.4379 197.541 24.8507C189.369 31.2568 181.778 40.7356 175.058 53.0277C173.419 56.0268 169.941 57.4933 166.652 56.5667C144.392 50.3002 122.491 47.3518 102.255 48.0621C94.7906 48.3244 87.7218 49.0807 81.081 50.3048C79.2156 50.6485 78.2062 48.2094 79.7478 47.1064ZM294.508 161.131C294.462 159.337 296.764 158.572 297.804 160.032C299.081 161.825 300.313 163.628 301.493 165.44C303.061 167.848 304.519 170.243 305.876 172.622C306.721 174.105 306.518 175.966 305.368 177.227C303.541 179.234 301.559 181.308 299.407 183.458C298.621 184.242 297.82 185.028 297.004 185.815C295.992 186.793 294.294 186.048 294.349 184.64C294.449 182.073 294.522 179.497 294.568 176.91C294.663 171.608 294.64 166.345 294.508 161.131ZM278.283 61.0599C279.266 61.9926 280.239 62.9406 281.201 63.9025C296.277 78.9789 307.89 96.5956 315.655 115.782C316.439 117.716 314.796 119.741 312.742 119.371C308.249 118.564 303.193 118.204 297.595 118.297C293.715 118.362 290.344 115.644 289.662 111.824C286.62 94.7671 282.222 79.0111 276.574 65.2601C276.252 64.4762 275.927 63.7015 275.597 62.9345C274.879 61.2609 276.962 59.8051 278.283 61.0599ZM337.457 139.056C330.716 107.03 314.867 77.6044 291.181 53.919C258.965 21.7029 216.132 3.96191 170.57 3.96191C125.009 3.96191 82.1747 21.7029 49.9586 53.919C42.1228 61.7548 35.1538 70.2211 29.0775 79.1982C27.2704 81.6036 25.652 84.1439 24.2131 86.8024C8.4295 113.03 0 143.133 0 174.532C0 220.094 17.7425 262.927 49.9586 295.143C82.1747 327.359 125.009 345.103 170.57 345.103C216.132 345.103 258.965 327.359 291.181 295.143C306.386 279.939 318.363 262.369 326.775 243.264C327.803 241.147 328.7 238.979 329.472 236.769C337.13 217.201 341.141 196.175 341.141 174.532C341.141 162.619 339.917 150.897 337.55 139.498C337.518 139.35 337.489 139.203 337.457 139.056Z" fill="#7B2BF9"/>
<path d="M999.297 331.918C1000.41 332.538 1001.97 333.035 1003.95 333.407C1006.06 333.78 1007.99 333.966 1009.72 333.966C1015.81 333.966 1020.52 332.6 1023.88 329.87C1027.35 327.263 1030.52 322.918 1033.37 316.835C1026.42 303.677 1019.9 289.588 1013.82 274.568C1007.74 259.424 1002.71 244.341 998.739 229.321H1015.5C1016.74 234.287 1018.17 239.686 1019.78 245.521C1021.52 251.231 1023.44 257.127 1025.55 263.21C1027.66 269.292 1029.9 275.437 1032.25 281.644C1034.74 287.726 1037.34 293.56 1040.08 299.146C1042.06 293.436 1043.92 287.788 1045.66 282.202C1047.4 276.616 1049.01 271.03 1050.5 265.444C1051.99 259.734 1053.48 253.962 1054.97 248.127C1056.46 242.169 1058.01 235.9 1059.63 229.321H1075.64C1071.67 245.459 1067.2 261.099 1062.23 276.244C1057.39 291.388 1052.18 305.415 1046.59 318.325C1044.48 323.29 1042.19 327.573 1039.7 331.173C1037.34 334.773 1034.74 337.752 1031.88 340.111C1029.03 342.469 1025.8 344.207 1022.2 345.324C1018.6 346.441 1014.5 347 1009.91 347C1007.55 347 1004.95 346.69 1002.09 346.069C999.359 345.448 997.497 344.89 996.504 344.393L999.297 331.918Z" fill="#7B2BF9"/>
<path d="M904.335 231.742C911.783 228.887 918.797 227.46 925.376 227.46C928.976 227.46 932.327 228.018 935.43 229.135C938.658 230.128 941.389 231.742 943.623 233.977C948.961 229.632 954.671 227.46 960.754 227.46C963.733 227.46 966.526 228.018 969.133 229.135C971.864 230.253 974.222 231.928 976.208 234.163C978.319 236.397 979.995 239.19 981.236 242.542C982.477 245.893 983.098 249.804 983.098 254.273V315.719H969.133V253.9C969.133 249.431 968.14 246.018 966.154 243.659C964.167 241.301 961.685 240.121 958.706 240.121C957.216 240.121 955.664 240.494 954.051 241.238C952.437 241.983 950.947 243.163 949.582 244.776C950.327 247.631 950.699 250.797 950.699 254.273V282.389H936.734V254.086C936.734 249.742 936.051 246.328 934.686 243.845C933.32 241.363 930.651 240.121 926.679 240.121C924.196 240.121 921.403 240.68 918.3 241.797V315.719H904.335V231.742Z" fill="#7B2BF9"/>
<path d="M851.826 227.273C863.495 227.273 872.495 230.935 878.825 238.259C885.156 245.459 888.322 256.445 888.322 271.217V276.617H826.503C827.124 285.554 830.041 292.382 835.254 297.099C840.592 301.692 848.04 303.988 857.599 303.988C863.06 303.988 867.715 303.554 871.564 302.685C875.412 301.816 878.329 300.885 880.315 299.892L882.363 312.926C880.501 313.919 877.15 314.974 872.308 316.091C867.467 317.208 862.005 317.767 855.923 317.767C848.475 317.767 841.896 316.65 836.185 314.415C830.599 312.057 825.944 308.891 822.22 304.919C818.496 300.947 815.703 296.23 813.841 290.768C811.979 285.182 811.048 279.161 811.048 272.706C811.048 265.01 812.228 258.307 814.586 252.597C816.945 246.887 820.048 242.169 823.896 238.445C827.744 234.721 832.089 231.928 836.93 230.066C841.771 228.204 846.737 227.273 851.826 227.273ZM872.681 264.141C872.681 256.817 870.757 251.045 866.909 246.825C863.06 242.48 857.971 240.307 851.64 240.307C848.04 240.307 844.751 240.99 841.771 242.356C838.916 243.721 836.434 245.521 834.323 247.756C832.213 249.99 830.537 252.535 829.296 255.39C828.055 258.245 827.248 261.162 826.875 264.141H872.681Z" fill="#7B2BF9"/>
<path d="M774.925 247.569C773.187 245.955 770.643 244.466 767.291 243.1C763.939 241.611 760.464 240.866 756.864 240.866C752.767 240.866 749.23 241.673 746.25 243.287C743.395 244.9 741.037 247.135 739.175 249.99C737.313 252.721 735.947 256.072 735.078 260.045C734.209 263.893 733.775 268.051 733.775 272.52C733.775 282.575 736.134 290.333 740.851 295.795C745.568 301.257 751.712 303.988 759.284 303.988C763.133 303.988 766.36 303.802 768.967 303.429C771.698 303.057 773.684 302.685 774.925 302.312V247.569ZM774.925 189.288L790.38 186.682V313.298C787.028 314.291 782.746 315.284 777.532 316.277C772.319 317.27 766.236 317.767 759.284 317.767C753.078 317.767 747.43 316.712 742.34 314.601C737.251 312.491 732.906 309.512 729.306 305.664C725.706 301.692 722.913 296.912 720.927 291.326C718.941 285.74 717.948 279.472 717.948 272.52C717.948 265.817 718.755 259.734 720.369 254.272C722.106 248.686 724.589 243.907 727.817 239.935C731.044 235.963 734.892 232.859 739.361 230.625C743.954 228.39 749.168 227.273 755.002 227.273C759.595 227.273 763.629 227.832 767.105 228.949C770.581 230.066 773.187 231.246 774.925 232.487V189.288Z" fill="#7B2BF9"/>
<path d="M664.881 304.733C668.729 304.733 672.142 304.609 675.122 304.361C678.225 304.112 680.77 303.802 682.756 303.43V277.734C680.77 277.113 678.349 276.617 675.494 276.244C672.763 275.872 669.846 275.686 666.743 275.686C663.888 275.686 661.095 275.934 658.364 276.43C655.633 276.803 653.212 277.548 651.102 278.665C648.992 279.782 647.254 281.272 645.888 283.134C644.523 284.872 643.84 287.106 643.84 289.837C643.84 295.423 645.702 299.333 649.426 301.568C653.274 303.678 658.426 304.733 664.881 304.733ZM663.391 227.273C669.846 227.273 675.246 228.08 679.591 229.694C684.059 231.308 687.659 233.542 690.39 236.397C693.121 239.252 695.045 242.728 696.162 246.825C697.28 250.921 697.838 255.39 697.838 260.231V314.229C694.238 314.85 689.459 315.595 683.501 316.464C677.666 317.333 671.646 317.767 665.439 317.767C660.722 317.767 656.129 317.333 651.66 316.464C647.192 315.719 643.219 314.353 639.744 312.367C636.268 310.257 633.475 307.402 631.365 303.802C629.254 300.202 628.199 295.609 628.199 290.023C628.199 285.058 629.254 280.899 631.365 277.548C633.599 274.072 636.392 271.279 639.744 269.169C643.219 267.058 647.13 265.569 651.474 264.7C655.943 263.707 660.412 263.21 664.881 263.21C670.963 263.21 676.922 263.893 682.756 265.258V260.976C682.756 258.369 682.446 255.886 681.825 253.528C681.328 251.045 680.273 248.811 678.66 246.825C677.17 244.838 675.06 243.287 672.329 242.169C669.722 240.928 666.308 240.307 662.088 240.307C656.75 240.307 652.095 240.68 648.123 241.425C644.15 242.17 641.109 242.914 638.999 243.659L637.137 230.997C639.247 230.004 642.723 229.135 647.564 228.391C652.529 227.646 657.805 227.273 663.391 227.273Z" fill="#7B2BF9"/>
<path d="M533.423 272.706C533.423 264.886 534.664 258.121 537.147 252.411C539.629 246.7 543.043 241.983 547.388 238.259C551.732 234.535 556.76 231.804 562.47 230.066C568.304 228.204 574.511 227.273 581.09 227.273C585.311 227.273 589.469 227.584 593.566 228.204C597.786 228.701 602.255 229.694 606.972 231.184L603.434 244.404C599.338 242.914 595.552 241.983 592.076 241.611C588.724 241.114 585.311 240.866 581.835 240.866C577.366 240.866 573.146 241.487 569.173 242.728C565.201 243.845 561.725 245.707 558.746 248.314C555.891 250.797 553.595 254.086 551.857 258.183C550.119 262.155 549.25 266.996 549.25 272.706C549.25 278.168 550.057 282.885 551.67 286.858C553.284 290.706 555.519 293.933 558.374 296.54C561.353 299.023 564.891 300.885 568.987 302.126C573.084 303.367 577.614 303.988 582.58 303.988C586.552 303.988 590.338 303.802 593.938 303.43C597.662 302.933 601.696 301.94 606.041 300.45L608.275 313.298C603.931 314.912 599.524 316.029 595.055 316.65C590.586 317.395 585.745 317.767 580.532 317.767C573.58 317.767 567.187 316.836 561.353 314.974C555.643 312.988 550.677 310.133 546.457 306.409C542.36 302.685 539.133 298.03 536.774 292.444C534.54 286.734 533.423 280.154 533.423 272.706Z" fill="#7B2BF9"/>
<path d="M506.424 315.718L499.534 285.554H455.219L448.515 315.718H432.875C434.985 307.525 437.343 298.65 439.95 289.092C442.557 279.533 445.35 269.727 448.329 259.672C451.433 249.617 454.66 239.562 458.012 229.507C461.363 219.328 464.901 209.646 468.625 200.46H487.618C491.217 209.646 494.631 219.328 497.859 229.507C501.21 239.562 504.314 249.617 507.169 259.672C510.148 269.727 512.941 279.533 515.548 289.092C518.154 298.65 520.513 307.525 522.623 315.718H506.424ZM477.563 213.866C474.708 221.687 471.604 230.749 468.253 241.052C464.901 251.355 461.736 261.968 458.756 272.892H495.997C493.142 261.72 490.038 250.982 486.687 240.679C483.459 230.252 480.418 221.314 477.563 213.866Z" fill="#7B2BF9"/>
<path d="M1009.72 129.518V47.7761C1022.39 43.4314 1035.17 41.259 1048.08 41.259C1052.05 41.259 1055.84 41.4452 1059.44 41.8176C1063.04 42.0659 1067.01 42.6866 1071.36 43.6796L1068.56 57.2723C1064.59 56.1551 1061.05 55.4724 1057.95 55.2241C1054.97 54.8517 1051.68 54.6655 1048.08 54.6655C1040.51 54.6655 1032.81 55.7206 1024.99 57.8309V129.518H1009.72Z" fill="#7B2BF9"/>
<path d="M944.182 118.532C948.03 118.532 951.444 118.408 954.423 118.16C957.526 117.912 960.071 117.601 962.057 117.229V91.5334C960.071 90.9127 957.65 90.4162 954.795 90.0438C952.064 89.6714 949.147 89.4852 946.044 89.4852C943.189 89.4852 940.396 89.7335 937.665 90.23C934.934 90.6024 932.513 91.3472 930.403 92.4644C928.293 93.5816 926.555 95.0712 925.189 96.9332C923.824 98.6711 923.141 100.905 923.141 103.636C923.141 109.222 925.003 113.133 928.727 115.367C932.575 117.477 937.727 118.532 944.182 118.532ZM942.692 41.073C949.147 41.073 954.547 41.8799 958.892 43.4936C963.361 45.1073 966.96 47.3417 969.691 50.1968C972.422 53.0519 974.346 56.5277 975.464 60.6241C976.581 64.7205 977.139 69.1893 977.139 74.0305V128.029C973.54 128.649 968.76 129.394 962.802 130.263C956.968 131.132 950.947 131.567 944.741 131.567C940.023 131.567 935.43 131.132 930.962 130.263C926.493 129.518 922.521 128.153 919.045 126.167C915.569 124.056 912.776 121.201 910.666 117.601C908.556 114.002 907.5 109.409 907.5 103.823C907.5 98.8573 908.556 94.6988 910.666 91.3472C912.9 87.8714 915.693 85.0784 919.045 82.9682C922.521 80.8579 926.431 79.3683 930.775 78.4993C935.244 77.5063 939.713 77.0097 944.182 77.0097C950.264 77.0097 956.223 77.6925 962.057 79.0579V74.7753C962.057 72.1685 961.747 69.6858 961.126 67.3273C960.63 64.8446 959.575 62.6102 957.961 60.6241C956.471 58.6379 954.361 57.0863 951.63 55.9691C949.023 54.7277 945.609 54.107 941.389 54.107C936.051 54.107 931.396 54.4794 927.424 55.2242C923.452 55.9691 920.41 56.7139 918.3 57.4587L916.438 44.797C918.548 43.8039 922.024 42.935 926.865 42.1902C931.831 41.4454 937.106 41.073 942.692 41.073Z" fill="#7B2BF9"/>
<path d="M866.536 131.566C861.074 131.566 856.543 130.821 852.944 129.332C849.344 127.842 846.489 125.608 844.378 122.629C842.268 119.649 840.778 115.987 839.91 111.643C839.041 107.174 838.606 102.022 838.606 96.1882V14.446H813.655V1.41199H853.875V96.1882C853.875 100.533 854.123 104.071 854.619 106.802C855.24 109.533 856.109 111.767 857.226 113.505C858.468 115.119 859.957 116.236 861.695 116.856C863.433 117.477 865.481 117.787 867.84 117.787C871.44 117.787 874.791 117.353 877.895 116.484C880.998 115.615 883.418 114.684 885.156 113.691L887.391 126.725C886.646 127.097 885.591 127.594 884.225 128.215C882.86 128.711 881.246 129.208 879.384 129.704C877.522 130.201 875.474 130.635 873.239 131.008C871.129 131.38 868.895 131.566 866.536 131.566Z" fill="#7B2BF9"/>
<path d="M790.38 127.097C787.028 127.966 782.56 128.897 776.974 129.89C771.512 130.883 765.057 131.38 757.609 131.38C751.03 131.38 745.568 130.449 741.223 128.587C736.878 126.601 733.341 123.87 730.61 120.394C727.879 116.794 725.955 112.574 724.837 107.732C723.72 102.891 723.162 97.5534 723.162 91.7191V43.1207H738.43V88.3675C738.43 99.043 739.982 106.615 743.085 111.084C746.313 115.553 751.65 117.787 759.098 117.787C760.712 117.787 762.326 117.725 763.94 117.601C765.677 117.477 767.291 117.353 768.781 117.229C770.27 116.98 771.574 116.794 772.691 116.67C773.808 116.422 774.553 116.236 774.925 116.111V43.1207H790.38V127.097Z" fill="#7B2BF9"/>
<path d="M681.825 61.3686C680.087 59.7548 677.543 58.2652 674.191 56.8998C670.839 55.4102 667.364 54.6654 663.764 54.6654C659.667 54.6654 656.129 55.4722 653.15 57.086C650.295 58.6997 647.937 60.9341 646.075 63.7892C644.213 66.5201 642.847 69.8718 641.978 73.844C641.109 77.6922 640.675 81.8507 640.675 86.3195C640.675 96.3743 643.033 104.133 647.75 109.595C652.467 115.056 658.612 117.787 666.184 117.787C670.032 117.787 673.26 117.601 675.867 117.229C678.598 116.856 680.584 116.484 681.825 116.112V61.3686ZM681.825 3.08777L697.28 0.480957V127.097C693.928 128.091 689.646 129.084 684.432 130.077C679.218 131.07 673.136 131.566 666.184 131.566C659.978 131.566 654.329 130.511 649.24 128.401C644.151 126.291 639.806 123.311 636.206 119.463C632.606 115.491 629.813 110.712 627.827 105.126C625.841 99.5397 624.848 93.271 624.848 86.3195C624.848 79.6163 625.655 73.5337 627.268 68.0718C629.006 62.4858 631.489 57.7066 634.716 53.7344C637.944 49.7621 641.792 46.6587 646.261 44.4243C650.854 42.1899 656.067 41.0727 661.902 41.0727C666.495 41.0727 670.529 41.6313 674.005 42.7485C677.48 43.8657 680.087 45.045 681.825 46.2863V3.08777Z" fill="#7B2BF9"/>
<path d="M609.951 86.3198C609.951 93.1471 608.958 99.3538 606.972 104.94C605.11 110.402 602.441 115.119 598.965 119.091C595.49 123.063 591.331 126.167 586.49 128.401C581.649 130.511 576.373 131.567 570.663 131.567C565.077 131.567 559.863 130.511 555.022 128.401C550.305 126.167 546.209 123.063 542.733 119.091C539.257 115.119 536.526 110.402 534.54 104.94C532.678 99.3538 531.747 93.1471 531.747 86.3198C531.747 79.4924 532.678 73.2857 534.54 67.6997C536.526 62.1137 539.257 57.3966 542.733 53.5484C546.209 49.5762 550.305 46.5349 555.022 44.4246C559.863 42.1902 565.077 41.073 570.663 41.073C576.373 41.073 581.649 42.1902 586.49 44.4246C591.331 46.5349 595.49 49.5762 598.965 53.5484C602.441 57.3966 605.11 62.1137 606.972 67.6997C608.958 73.2857 609.951 79.4924 609.951 86.3198ZM594.124 86.3198C594.124 76.5132 592.014 68.8169 587.793 63.2309C583.573 57.5207 577.863 54.6656 570.663 54.6656C563.587 54.6656 557.939 57.5207 553.719 63.2309C549.622 68.8169 547.574 76.5132 547.574 86.3198C547.574 96.0022 549.622 103.699 553.719 109.409C557.939 114.995 563.587 117.788 570.663 117.788C577.863 117.788 583.573 114.995 587.793 109.409C592.014 103.699 594.124 96.0022 594.124 86.3198Z" fill="#7B2BF9"/>
<path d="M477.935 71.6092L495.81 14.2594H510.148C512.631 32.3829 514.368 50.9409 515.361 69.9334C516.479 88.9259 517.472 108.787 518.341 129.518H503.445C503.321 122.814 503.196 115.553 503.072 107.732C502.948 99.9117 502.762 91.843 502.514 83.5261C502.39 75.2091 502.203 66.768 501.955 58.2028C501.831 49.6375 501.645 41.3206 501.396 33.2519L484.638 85.7605H471.232L454.101 33.2519C453.977 41.3206 453.791 49.6375 453.543 58.2028C453.419 66.6439 453.233 75.085 452.984 83.5261C452.86 91.843 452.674 99.9117 452.426 107.732C452.302 115.553 452.177 122.814 452.053 129.518H437.157C437.53 120.083 437.964 110.401 438.461 100.47C438.957 90.5396 439.516 80.671 440.136 70.8644C440.881 61.0578 441.688 51.3754 442.557 41.8171C443.55 32.2588 444.605 23.0729 445.722 14.2594H459.874L477.935 71.6092Z" fill="#7B2BF9"/>
</svg>
