<svg width="1077" height="347" viewBox="0 0 1077 347" fill="none" xmlns="http://www.w3.org/2000/svg">
<path fill-rule="evenodd" clip-rule="evenodd" d="M327.363 178.702C327.331 179.759 325.892 180.038 325.477 179.064C325.299 178.644 325.116 178.222 324.931 177.8C324.592 177.028 324.687 176.131 325.193 175.456C325.297 175.318 325.51 175.039 325.765 174.706C326.449 173.812 327.436 173.945 327.436 174.938C327.436 176.24 327.405 177.367 327.363 178.702ZM319.792 158.023C318.626 160.123 315.636 160.22 314.341 158.195C314.14 157.882 313.938 157.569 313.734 157.255C309.067 150.089 303.696 143.056 297.698 136.22C296.226 134.542 297.43 131.908 299.664 131.907H299.717C313.734 131.907 321.082 135.369 323.324 139.597C325.196 143.133 324.622 149.316 319.792 158.023ZM316.659 231.322C315.907 233.235 315.12 235.136 314.294 237.018C314.165 237.277 314.044 237.54 313.91 237.797C308.751 247.727 300.095 255.546 288.526 260.987C285.931 262.207 283.091 259.832 283.865 257.071C287.706 243.323 290.613 228.414 292.497 212.783C292.848 209.869 294.285 207.193 296.506 205.273C301.264 201.157 305.706 197.047 309.793 192.967L309.837 192.921C311.848 190.914 315.278 191.778 316.098 194.499C320.135 207.921 320.359 220.421 316.659 231.322ZM285.215 280.957C284.038 282.215 282.837 283.458 281.613 284.682C279.48 286.811 277.297 288.871 275.067 290.861C273.66 292.114 271.533 290.546 272.329 288.837C272.556 288.35 272.781 287.859 273.005 287.363C273.943 285.297 274.848 283.177 275.728 281.017C275.937 280.508 276.375 280.127 276.909 279.991C279.128 279.428 281.291 278.806 283.397 278.127C285.104 277.578 286.442 279.647 285.215 280.957ZM262.123 268.547C257.453 269.223 252.543 269.661 247.405 269.842C234.871 270.28 221.617 269.199 208.002 266.692C206.343 266.387 206.024 264.143 207.528 263.382C210.498 261.878 213.47 260.341 216.44 258.767C237.272 247.726 256.709 235.656 273.725 223.281C275.001 222.353 276.759 223.448 276.5 225.005C274.14 239.187 270.873 252.538 266.769 264.657C266.07 266.721 264.281 268.234 262.123 268.547ZM257.308 287.441C246.138 309.409 232.383 321.742 219.049 321.494C204.557 321.236 190.106 306.144 179.405 280.092L179.393 280.063C178.713 278.409 179.494 276.516 181.132 275.804C181.246 275.754 181.359 275.705 181.473 275.654C182.176 275.349 182.964 275.294 183.703 275.502C203.721 281.12 223.444 284.051 241.923 284.051C243.931 284.051 245.925 284.018 247.902 283.948C250.217 283.866 252.495 283.735 254.733 283.557C256.809 283.393 258.253 285.585 257.308 287.441ZM191.166 329.216C184.526 330.069 177.787 330.506 170.982 330.506C140.571 330.506 111.485 321.888 86.5121 305.807C84.794 304.699 85.5243 302.033 87.566 301.94C87.9894 301.92 88.3852 301.898 88.7334 301.877C95.0797 301.464 102.038 300.534 109.578 299.082C125.616 295.997 143.444 290.704 162.112 283.577C163.786 282.939 165.654 283.769 166.335 285.426C166.34 285.436 166.343 285.446 166.347 285.455C173.582 303.069 182.485 316.378 192.483 324.844C194.135 326.245 193.314 328.94 191.166 329.216ZM100.691 219.595C114.477 208.369 130.631 197.167 148.35 186.562C148.731 209.226 151.216 230.985 155.614 250.639C149.042 247.836 142.49 244.75 135.995 241.376C123.415 234.838 111.578 227.515 100.691 219.595ZM57.8166 280.321C54.5277 274.115 58.7785 259.742 80.373 237.896L80.3838 237.885C82.6388 235.607 82.4224 231.868 79.9051 229.885C79.0399 229.205 78.1809 228.518 77.328 227.831C75.1773 226.093 72.0647 226.252 70.1119 228.208C69.6839 228.636 69.3649 228.958 69.2713 229.055C58.4763 240.135 50.9212 250.392 46.6889 259.617C45.4893 262.231 41.8658 262.514 40.2796 260.114C23.5265 234.789 14.528 205.113 14.528 174.051C14.528 162.946 15.6815 152.018 17.9258 141.402C18.2648 139.796 20.5306 139.693 21.0061 141.264C24.2521 151.981 29.5353 163.066 36.8358 174.275C46.6627 189.367 59.6222 203.874 74.9794 217.182C80.2211 221.724 85.7574 226.117 91.5315 230.356C103.236 238.945 115.955 246.871 129.486 253.902C135.484 257.019 141.326 259.993 147.309 262.687C150.639 264.186 154.43 264.302 157.829 262.968C160.65 261.863 163.491 260.714 166.349 259.519C169.457 258.223 171.143 254.834 170.319 251.568C170.216 251.16 170.135 250.832 170.089 250.639C165.378 230.813 162.759 208.494 162.451 185.117L162.442 185.122C162.439 184.844 162.44 184.562 162.437 184.281C162.423 183.003 162.431 181.716 162.408 180.442C162.4 180.035 162.413 179.346 162.417 178.938C162.42 178.776 162.417 178.615 162.417 178.454C162.419 178.454 162.422 178.452 162.423 178.452C162.431 176.989 162.442 175.527 162.468 174.059C162.54 170.049 162.684 166.068 162.891 162.119C162.888 162.121 162.887 162.122 162.884 162.124C164.336 133.915 169.119 107.408 176.73 85.1111C177.434 83.0478 176.334 80.8082 174.271 80.104C172.26 79.4168 170.25 78.7602 168.244 78.1313C166.214 77.4946 164.045 78.5899 163.359 80.6041C155.111 104.819 150.021 133.546 148.663 163.946C148.49 167.803 146.391 171.313 143.07 173.281C125.065 183.951 108.53 195.263 94.2452 206.666C91.2692 209.042 87.0184 208.951 84.1406 206.456C69.8235 194.042 57.7737 180.56 48.6647 166.571C30.7641 139.084 26.5102 113.19 36.69 93.6709C36.7176 93.6249 36.7422 93.5774 36.7683 93.5329C38.0661 91.3791 39.416 89.2545 40.8212 87.159C52.5182 71.6761 74.2891 62.7036 103.162 61.6896C104.99 61.6251 106.829 61.5929 108.685 61.5929C126.395 61.5929 145.402 64.5152 164.732 70.093L164.737 70.0884C165.16 70.2111 165.584 70.3384 166.007 70.4627C166.334 70.5593 166.66 70.6498 166.987 70.748C166.987 70.7465 166.986 70.7495 166.987 70.748C171.454 72.0826 175.934 73.5629 180.419 75.1767C180.419 75.1783 180.421 75.1752 180.419 75.1767C180.523 75.2136 180.629 75.2519 180.734 75.2887C181.902 75.7106 183.07 76.1432 184.237 76.5834C184.602 76.7215 184.969 76.8611 185.334 77.0022C185.685 77.1372 186.037 77.2676 186.39 77.4041L186.385 77.4103C195.825 81.0643 205.258 85.3136 214.573 90.155C232.602 99.5217 249.105 110.502 263.467 122.549C236.058 128.828 204.2 140.94 172.168 157.272C170.69 158.026 169.718 159.511 169.624 161.168C169.512 163.153 169.365 167.145 169.259 170.317C169.193 172.308 171.299 173.627 173.063 172.701L173.082 172.69C204.796 156.037 236.448 143.59 263.629 137.012C268.71 135.783 271.999 130.903 271.286 125.726C270.785 122.109 270.223 118.548 269.6 115.051C268.817 110.657 266.412 106.729 262.862 104.026C250.131 94.3275 236.101 85.4317 221.082 77.6266C210.96 72.3679 200.69 67.7597 190.398 63.8295C188.197 62.9889 187.253 60.3872 188.402 58.3301C199.005 39.3618 211.617 28.7387 223.903 28.7387C224.03 28.7387 224.157 28.7387 224.285 28.7418C238.777 29.001 253.227 44.0912 263.928 70.1436C269.345 83.3316 273.542 98.54 276.411 115.068C276.395 115.054 276.38 115.041 276.366 115.028C277.59 122.081 278.577 129.371 279.309 136.849C279.246 136.889 279.178 136.924 279.115 136.964C279.201 137.052 279.292 137.139 279.379 137.228C280.593 149.776 281.105 162.843 280.866 176.177C280.715 184.611 280.266 192.929 279.539 201.067C260.15 216.735 236.178 232.329 209.828 246.293C201.168 250.883 192.51 255.155 183.937 259.088C183.803 259.149 183.671 259.209 183.538 259.271C182.883 259.57 182.226 259.873 181.571 260.17C181.565 260.168 181.56 260.166 181.556 260.165C174.452 263.379 167.415 266.352 160.495 269.067C160.497 269.068 160.497 269.071 160.498 269.073C160.107 269.226 159.719 269.374 159.329 269.526C158.843 269.716 158.357 269.903 157.872 270.09C156.711 270.535 155.554 270.974 154.4 271.405C154.083 271.523 153.764 271.647 153.446 271.764C152.046 272.284 150.653 272.788 149.265 273.285C149.091 273.347 148.918 273.413 148.746 273.474C148.743 273.473 148.741 273.473 148.74 273.471C133.911 278.753 119.784 282.743 106.91 285.22C75.8016 291.209 61.1531 286.615 57.8166 280.321ZM80.1597 46.6254C106.49 27.7707 137.953 17.5971 170.982 17.5971C179.7 17.5971 188.305 18.3104 196.738 19.7018C198.996 20.0745 199.754 22.957 197.953 24.3698C189.781 30.7759 182.189 40.2546 175.47 52.5468C173.83 55.5458 170.353 57.0123 167.064 56.0858C144.804 49.8193 122.902 46.8709 102.667 47.5811C95.2025 47.8435 88.1336 48.5997 81.4928 49.8239C79.6275 50.1675 78.618 47.7284 80.1597 46.6254ZM294.92 160.65C294.874 158.856 297.175 158.091 298.215 159.551C299.493 161.345 300.725 163.147 301.905 164.959C303.473 167.367 304.931 169.762 306.287 172.141C307.133 173.624 306.93 175.485 305.78 176.746C303.953 178.753 301.971 180.827 299.819 182.977C299.033 183.761 298.232 184.547 297.416 185.334C296.404 186.312 294.706 185.567 294.761 184.159C294.86 181.592 294.934 179.017 294.98 176.429C295.075 171.127 295.052 165.864 294.92 160.65ZM278.695 60.579C279.678 61.5116 280.651 62.4597 281.613 63.4215C296.689 78.4979 308.302 96.1147 316.067 115.301C316.851 117.235 315.208 119.26 313.154 118.89C308.661 118.083 303.604 117.723 298.007 117.817C294.127 117.881 290.755 115.163 290.074 111.343C287.032 94.2861 282.634 78.5301 276.986 64.7791C276.664 63.9952 276.339 63.2205 276.009 62.4535C275.291 60.7799 277.374 59.3241 278.695 60.579ZM337.869 138.575C331.128 106.549 315.278 77.1234 291.593 53.4381C259.377 21.222 216.544 3.48096 170.982 3.48096C125.421 3.48096 82.5865 21.222 50.3705 53.4381C42.5347 61.2739 35.5656 69.7402 29.4894 78.7173C27.6823 81.1226 26.0639 83.663 24.625 86.3214C8.84136 112.549 0.411865 142.652 0.411865 174.051C0.411865 219.613 18.1544 262.446 50.3705 294.662C82.5865 326.878 125.421 344.622 170.982 344.622C216.544 344.622 259.377 326.878 291.593 294.662C306.798 279.458 318.774 261.888 327.187 242.783C328.215 240.666 329.112 238.498 329.884 236.288C337.542 216.72 341.553 195.694 341.553 174.051C341.553 162.138 340.329 150.416 337.962 139.017C337.93 138.869 337.901 138.722 337.869 138.575Z" fill="white"/>
<path d="M999.709 331.437C1000.83 332.057 1002.38 332.554 1004.36 332.926C1006.47 333.299 1008.4 333.485 1010.14 333.485C1016.22 333.485 1020.94 332.119 1024.29 329.388C1027.76 326.782 1030.93 322.437 1033.78 316.354C1026.83 303.196 1020.32 289.107 1014.23 274.087C1008.15 258.943 1003.12 243.86 999.151 228.84H1015.91C1017.15 233.805 1018.58 239.205 1020.19 245.04C1021.93 250.75 1023.85 256.646 1025.96 262.729C1028.07 268.811 1030.31 274.956 1032.67 281.162C1035.15 287.245 1037.76 293.079 1040.49 298.665C1042.47 292.955 1044.34 287.307 1046.07 281.721C1047.81 276.135 1049.42 270.549 1050.91 264.963C1052.4 259.253 1053.89 253.481 1055.38 247.646C1056.87 241.688 1058.42 235.419 1060.04 228.84H1076.05C1072.08 244.977 1067.61 260.618 1062.65 275.763C1057.8 290.907 1052.59 304.934 1047 317.844C1044.89 322.809 1042.6 327.092 1040.11 330.692C1037.76 334.292 1035.15 337.271 1032.29 339.629C1029.44 341.988 1026.21 343.726 1022.61 344.843C1019.01 345.96 1014.92 346.519 1010.32 346.519C1007.96 346.519 1005.36 346.209 1002.5 345.588C999.771 344.967 997.909 344.409 996.916 343.912L999.709 331.437Z" fill="white"/>
<path d="M904.747 231.261C912.195 228.406 919.208 226.979 925.788 226.979C929.387 226.979 932.739 227.537 935.842 228.654C939.07 229.647 941.801 231.261 944.035 233.496C949.373 229.151 955.083 226.979 961.166 226.979C964.145 226.979 966.938 227.537 969.545 228.654C972.276 229.772 974.634 231.447 976.62 233.682C978.731 235.916 980.406 238.709 981.648 242.061C982.889 245.412 983.51 249.323 983.51 253.791V315.238H969.545V253.419C969.545 248.95 968.552 245.537 966.565 243.178C964.579 240.819 962.097 239.64 959.117 239.64C957.628 239.64 956.076 240.013 954.462 240.757C952.849 241.502 951.359 242.681 949.994 244.295C950.738 247.15 951.111 250.316 951.111 253.791V281.908H937.146V253.605C937.146 249.261 936.463 245.847 935.098 243.364C933.732 240.881 931.063 239.64 927.091 239.64C924.608 239.64 921.815 240.199 918.712 241.316V315.238H904.747V231.261Z" fill="white"/>
<path d="M852.238 226.792C863.907 226.792 872.906 230.454 879.237 237.778C885.568 244.978 888.734 255.964 888.734 270.736V276.136H826.915C827.536 285.073 830.453 291.901 835.666 296.618C841.004 301.211 848.452 303.507 858.01 303.507C863.472 303.507 868.127 303.073 871.975 302.204C875.824 301.335 878.741 300.404 880.727 299.411L882.775 312.445C880.913 313.438 877.561 314.493 872.72 315.61C867.879 316.727 862.417 317.286 856.335 317.286C848.887 317.286 842.307 316.169 836.597 313.934C831.011 311.576 826.356 308.41 822.632 304.438C818.908 300.466 816.115 295.749 814.253 290.287C812.391 284.701 811.46 278.68 811.46 272.225C811.46 264.529 812.639 257.826 814.998 252.116C817.357 246.406 820.46 241.688 824.308 237.964C828.156 234.24 832.501 231.447 837.342 229.585C842.183 227.723 847.149 226.792 852.238 226.792ZM873.093 263.66C873.093 256.336 871.169 250.564 867.32 246.343C863.472 241.999 858.383 239.826 852.052 239.826C848.452 239.826 845.163 240.509 842.183 241.875C839.328 243.24 836.846 245.04 834.735 247.274C832.625 249.509 830.949 252.054 829.708 254.909C828.467 257.764 827.66 260.681 827.287 263.66H873.093Z" fill="white"/>
<path d="M775.337 247.088C773.599 245.474 771.055 243.985 767.703 242.619C764.351 241.13 760.876 240.385 757.276 240.385C753.179 240.385 749.641 241.192 746.662 242.805C743.807 244.419 741.449 246.654 739.587 249.509C737.725 252.24 736.359 255.591 735.49 259.564C734.621 263.412 734.187 267.57 734.187 272.039C734.187 282.094 736.545 289.852 741.262 295.314C745.98 300.776 752.124 303.507 759.696 303.507C763.544 303.507 766.772 303.321 769.379 302.948C772.11 302.576 774.096 302.203 775.337 301.831V247.088ZM775.337 188.807L790.792 186.2V312.817C787.44 313.81 783.158 314.803 777.944 315.796C772.73 316.789 766.648 317.286 759.696 317.286C753.49 317.286 747.842 316.231 742.752 314.12C737.663 312.01 733.318 309.031 729.718 305.183C726.118 301.21 723.325 296.431 721.339 290.845C719.353 285.259 718.36 278.99 718.36 272.039C718.36 265.336 719.167 259.253 720.78 253.791C722.518 248.205 725.001 243.426 728.228 239.454C731.456 235.482 735.304 232.378 739.773 230.144C744.366 227.909 749.579 226.792 755.414 226.792C760.007 226.792 764.041 227.351 767.517 228.468C770.992 229.585 773.599 230.764 775.337 232.006V188.807Z" fill="white"/>
<path d="M665.293 304.252C669.141 304.252 672.554 304.128 675.534 303.879C678.637 303.631 681.182 303.321 683.168 302.948V277.253C681.182 276.632 678.761 276.136 675.906 275.763C673.175 275.391 670.258 275.205 667.155 275.205C664.299 275.205 661.506 275.453 658.775 275.949C656.045 276.322 653.624 277.067 651.514 278.184C649.403 279.301 647.665 280.791 646.3 282.653C644.935 284.39 644.252 286.625 644.252 289.356C644.252 294.942 646.114 298.852 649.838 301.086C653.686 303.197 658.838 304.252 665.293 304.252ZM663.803 226.792C670.258 226.792 675.658 227.599 680.002 229.213C684.471 230.827 688.071 233.061 690.802 235.916C693.533 238.771 695.457 242.247 696.574 246.343C697.691 250.44 698.25 254.909 698.25 259.75V313.748C694.65 314.369 689.871 315.114 683.913 315.982C678.078 316.851 672.058 317.286 665.851 317.286C661.134 317.286 656.541 316.851 652.072 315.982C647.603 315.238 643.631 313.872 640.155 311.886C636.68 309.776 633.887 306.921 631.776 303.321C629.666 299.721 628.611 295.128 628.611 289.542C628.611 284.577 629.666 280.418 631.776 277.067C634.011 273.591 636.804 270.798 640.155 268.688C643.631 266.577 647.541 265.088 651.886 264.219C656.355 263.226 660.824 262.729 665.293 262.729C671.375 262.729 677.333 263.412 683.168 264.777V260.495C683.168 257.888 682.857 255.405 682.237 253.047C681.74 250.564 680.685 248.33 679.071 246.343C677.582 244.357 675.471 242.806 672.741 241.688C670.134 240.447 666.72 239.826 662.499 239.826C657.162 239.826 652.507 240.199 648.534 240.944C644.562 241.688 641.521 242.433 639.411 243.178L637.549 230.516C639.659 229.523 643.135 228.654 647.976 227.91C652.941 227.165 658.217 226.792 663.803 226.792Z" fill="white"/>
<path d="M533.835 272.225C533.835 264.405 535.076 257.64 537.559 251.929C540.041 246.219 543.455 241.502 547.8 237.778C552.144 234.054 557.172 231.323 562.882 229.585C568.716 227.723 574.923 226.792 581.502 226.792C585.723 226.792 589.881 227.103 593.978 227.723C598.198 228.22 602.667 229.213 607.384 230.703L603.846 243.923C599.75 242.433 595.964 241.502 592.488 241.13C589.136 240.633 585.723 240.385 582.247 240.385C577.778 240.385 573.558 241.006 569.585 242.247C565.613 243.364 562.137 245.226 559.158 247.833C556.303 250.316 554.006 253.605 552.269 257.702C550.531 261.674 549.662 266.515 549.662 272.225C549.662 277.687 550.469 282.404 552.082 286.377C553.696 290.225 555.931 293.452 558.786 296.059C561.765 298.542 565.303 300.404 569.399 301.645C573.495 302.886 578.026 303.507 582.992 303.507C586.964 303.507 590.75 303.321 594.35 302.948C598.074 302.452 602.108 301.459 606.453 299.969L608.687 312.817C604.343 314.431 599.936 315.548 595.467 316.169C590.998 316.913 586.157 317.286 580.944 317.286C573.992 317.286 567.599 316.355 561.765 314.493C556.055 312.507 551.089 309.652 546.869 305.928C542.772 302.204 539.545 297.549 537.186 291.963C534.952 286.252 533.835 279.673 533.835 272.225Z" fill="white"/>
<path d="M506.836 315.237L499.946 285.073H455.63L448.927 315.237H433.286C435.397 307.044 437.755 298.169 440.362 288.61C442.969 279.052 445.762 269.246 448.741 259.191C451.844 249.136 455.072 239.081 458.423 229.026C461.775 218.847 465.313 209.165 469.037 199.979H488.029C491.629 209.165 495.043 218.847 498.27 229.026C501.622 239.081 504.725 249.136 507.58 259.191C510.56 269.246 513.353 279.052 515.959 288.61C518.566 298.169 520.925 307.044 523.035 315.237H506.836ZM477.975 213.385C475.119 221.206 472.016 230.268 468.665 240.571C465.313 250.874 462.147 261.487 459.168 272.411H496.408C493.553 261.239 490.45 250.501 487.098 240.198C483.871 229.771 480.83 220.833 477.975 213.385Z" fill="white"/>
<path d="M1010.14 129.037V47.2951C1022.8 42.9504 1035.58 40.7781 1048.49 40.7781C1052.47 40.7781 1056.25 40.9643 1059.85 41.3367C1063.45 41.585 1067.42 42.2056 1071.77 43.1987L1068.98 56.7913C1065 55.6741 1061.47 54.9914 1058.36 54.7431C1055.38 54.3707 1052.09 54.1845 1048.49 54.1845C1040.92 54.1845 1033.23 55.2397 1025.4 57.3499V129.037H1010.14Z" fill="white"/>
<path d="M944.594 118.052C948.442 118.052 951.856 117.927 954.835 117.679C957.938 117.431 960.483 117.121 962.469 116.748V91.0524C960.483 90.4318 958.062 89.9352 955.207 89.5628C952.476 89.1904 949.559 89.0042 946.456 89.0042C943.601 89.0042 940.808 89.2525 938.077 89.749C935.346 90.1214 932.925 90.8662 930.815 91.9834C928.705 93.1006 926.967 94.5902 925.601 96.4523C924.236 98.1901 923.553 100.425 923.553 103.155C923.553 108.741 925.415 112.652 929.139 114.886C932.987 116.996 938.139 118.052 944.594 118.052ZM943.104 40.592C949.559 40.592 954.959 41.3989 959.304 43.0127C963.772 44.6264 967.372 46.8608 970.103 49.7159C972.834 52.5709 974.758 56.0467 975.876 60.1431C976.993 64.2395 977.551 68.7083 977.551 73.5496V127.548C973.951 128.168 969.172 128.913 963.214 129.782C957.38 130.651 951.359 131.086 945.152 131.086C940.435 131.086 935.842 130.651 931.374 129.782C926.905 129.037 922.932 127.672 919.457 125.686C915.981 123.575 913.188 120.72 911.078 117.121C908.967 113.521 907.912 108.928 907.912 103.342C907.912 98.3763 908.967 94.2178 911.078 90.8662C913.312 87.3905 916.105 84.5975 919.457 82.4872C922.932 80.3769 926.843 78.8873 931.187 78.0184C935.656 77.0253 940.125 76.5288 944.594 76.5288C950.676 76.5288 956.635 77.2115 962.469 78.577V74.2944C962.469 71.6876 962.159 69.2049 961.538 66.8463C961.042 64.3637 959.986 62.1293 958.373 60.1431C956.883 58.157 954.773 56.6053 952.042 55.4881C949.435 54.2468 946.021 53.6261 941.801 53.6261C936.463 53.6261 931.808 53.9985 927.836 54.7433C923.863 55.4881 920.822 56.2329 918.712 56.9777L916.85 44.3161C918.96 43.323 922.436 42.454 927.277 41.7092C932.242 40.9644 937.518 40.592 943.104 40.592Z" fill="white"/>
<path d="M866.948 131.085C861.486 131.085 856.955 130.341 853.355 128.851C849.756 127.361 846.901 125.127 844.79 122.148C842.68 119.168 841.19 115.507 840.321 111.162C839.453 106.693 839.018 101.541 839.018 95.7072V13.9651H814.067V0.93103H854.287V95.7072C854.287 100.052 854.535 103.59 855.031 106.321C855.652 109.052 856.521 111.286 857.638 113.024C858.879 114.638 860.369 115.755 862.107 116.375C863.845 116.996 865.893 117.306 868.252 117.306C871.851 117.306 875.203 116.872 878.306 116.003C881.41 115.134 883.83 114.203 885.568 113.21L887.803 126.244C887.058 126.617 886.003 127.113 884.637 127.734C883.272 128.23 881.658 128.727 879.796 129.223C877.934 129.72 875.886 130.154 873.651 130.527C871.541 130.899 869.307 131.085 866.948 131.085Z" fill="white"/>
<path d="M790.792 126.616C787.44 127.485 782.972 128.416 777.386 129.409C771.924 130.402 765.469 130.899 758.021 130.899C751.442 130.899 745.98 129.968 741.635 128.106C737.29 126.12 733.753 123.389 731.022 119.913C728.291 116.313 726.367 112.093 725.249 107.251C724.132 102.41 723.574 97.0724 723.574 91.2382V42.6398H738.842V87.8865C738.842 98.562 740.394 106.134 743.497 110.603C746.725 115.072 752.062 117.306 759.51 117.306C761.124 117.306 762.738 117.244 764.352 117.12C766.089 116.996 767.703 116.872 769.193 116.748C770.682 116.499 771.986 116.313 773.103 116.189C774.22 115.941 774.965 115.755 775.337 115.63V42.6398H790.792V126.616Z" fill="white"/>
<path d="M682.237 60.8876C680.499 59.2739 677.954 57.7843 674.603 56.4188C671.251 54.9292 667.775 54.1844 664.175 54.1844C660.079 54.1844 656.541 54.9913 653.562 56.605C650.707 58.2188 648.348 60.4532 646.486 63.3082C644.624 66.0392 643.259 69.3908 642.39 73.3631C641.521 77.2112 641.087 81.3697 641.087 85.8385C641.087 95.8934 643.445 103.652 648.162 109.114C652.879 114.576 659.024 117.306 666.596 117.306C670.444 117.306 673.672 117.12 676.279 116.748C679.009 116.375 680.996 116.003 682.237 115.631V60.8876ZM682.237 2.60681L697.692 0V126.616C694.34 127.61 690.057 128.603 684.844 129.596C679.63 130.589 673.548 131.085 666.596 131.085C660.389 131.085 654.741 130.03 649.652 127.92C644.562 125.81 640.218 122.83 636.618 118.982C633.018 115.01 630.225 110.231 628.239 104.645C626.253 99.0588 625.26 92.79 625.26 85.8385C625.26 79.1353 626.066 73.0527 627.68 67.5909C629.418 62.0048 631.901 57.2257 635.128 53.2534C638.356 49.2811 642.204 46.1778 646.673 43.9434C651.266 41.709 656.479 40.5918 662.313 40.5918C666.906 40.5918 670.941 41.1504 674.417 42.2676C677.892 43.3848 680.499 44.564 682.237 45.8054V2.60681Z" fill="white"/>
<path d="M610.363 85.8388C610.363 92.6662 609.37 98.8729 607.384 104.459C605.522 109.921 602.853 114.638 599.377 118.61C595.902 122.582 591.743 125.686 586.902 127.92C582.061 130.03 576.785 131.086 571.075 131.086C565.489 131.086 560.275 130.03 555.434 127.92C550.717 125.686 546.621 122.582 543.145 118.61C539.669 114.638 536.938 109.921 534.952 104.459C533.09 98.8729 532.159 92.6662 532.159 85.8388C532.159 79.0115 533.09 72.8048 534.952 67.2187C536.938 61.6327 539.669 56.9156 543.145 53.0675C546.621 49.0952 550.717 46.0539 555.434 43.9437C560.275 41.7092 565.489 40.592 571.075 40.592C576.785 40.592 582.061 41.7092 586.902 43.9437C591.743 46.0539 595.902 49.0952 599.377 53.0675C602.853 56.9156 605.522 61.6327 607.384 67.2187C609.37 72.8048 610.363 79.0115 610.363 85.8388ZM594.536 85.8388C594.536 76.0322 592.426 68.3359 588.205 62.7499C583.985 57.0398 578.275 54.1847 571.075 54.1847C563.999 54.1847 558.351 57.0398 554.131 62.7499C550.034 68.3359 547.986 76.0322 547.986 85.8388C547.986 95.5213 550.034 103.218 554.131 108.928C558.351 114.514 563.999 117.307 571.075 117.307C578.275 117.307 583.985 114.514 588.205 108.928C592.426 103.218 594.536 95.5213 594.536 85.8388Z" fill="white"/>
<path d="M478.347 71.1281L496.222 13.7783H510.56C513.042 31.9019 514.78 50.4599 515.773 69.4523C516.89 88.4448 517.884 108.306 518.752 129.037H503.856C503.732 122.333 503.608 115.072 503.484 107.251C503.36 99.4307 503.174 91.3619 502.925 83.045C502.801 74.728 502.615 66.2869 502.367 57.7217C502.243 49.1565 502.056 40.8395 501.808 32.7708L485.05 85.2794H471.644L454.513 32.7708C454.389 40.8395 454.203 49.1565 453.955 57.7217C453.83 66.1628 453.644 74.6039 453.396 83.045C453.272 91.3619 453.086 99.4307 452.837 107.251C452.713 115.072 452.589 122.333 452.465 129.037H437.569C437.941 119.602 438.376 109.92 438.872 99.9893C439.369 90.0585 439.928 80.1899 440.548 70.3833C441.293 60.5768 442.1 50.8943 442.969 41.336C443.962 31.7777 445.017 22.5918 446.134 13.7783H460.285L478.347 71.1281Z" fill="white"/>
</svg>
