<svg width="872" height="223" viewBox="0 0 872 223" fill="none" xmlns="http://www.w3.org/2000/svg">
<path d="M870.409 138.96L837.229 81.4095C836.711 80.5546 835.982 79.8477 835.111 79.3571C834.24 78.8665 833.258 78.6087 832.259 78.6087C831.259 78.6087 830.277 78.8665 829.406 79.3571C828.536 79.8477 827.806 80.5546 827.289 81.4095L794.109 138.96C793.72 139.66 793.497 140.44 793.459 141.24C793.406 142.016 793.509 142.796 793.762 143.532C794.015 144.269 794.412 144.947 794.931 145.528C795.45 146.108 796.08 146.579 796.784 146.912C797.487 147.246 798.251 147.435 799.029 147.469C801.299 147.519 803.029 146.379 804.439 143.939L809.569 135.02C809.897 134.445 810.371 133.967 810.944 133.635C811.516 133.303 812.167 133.129 812.829 133.129H851.569C852.23 133.13 852.88 133.305 853.452 133.637C854.025 133.968 854.499 134.445 854.829 135.02L859.959 143.939C861.249 146.249 862.959 147.399 865.099 147.469C865.872 147.499 866.643 147.373 867.366 147.099C868.09 146.825 868.751 146.408 869.311 145.874C869.87 145.339 870.317 144.698 870.624 143.988C870.931 143.278 871.092 142.513 871.099 141.74C871.077 140.773 870.841 139.824 870.409 138.96ZM842.739 121.659H821.739C821.289 121.658 820.847 121.538 820.458 121.313C820.069 121.087 819.745 120.763 819.521 120.373C819.296 119.984 819.178 119.542 819.177 119.092C819.177 118.642 819.294 118.2 819.519 117.809L830.069 99.5995C830.294 99.2091 830.619 98.885 831.009 98.6596C831.4 98.4343 831.843 98.3157 832.294 98.3157C832.744 98.3157 833.187 98.4343 833.578 98.6596C833.968 98.885 834.293 99.2091 834.519 99.5995L844.999 117.809C845.224 118.203 845.342 118.648 845.34 119.102C845.338 119.555 845.216 120 844.986 120.391C844.757 120.782 844.428 121.105 844.033 121.328C843.639 121.551 843.192 121.665 842.739 121.659ZM219.899 88.0695C215.734 68.4942 206.365 50.4055 192.778 35.7109C179.191 21.0163 161.891 10.2604 142.701 4.57759C123.512 -1.10524 103.144 -1.50441 83.7467 3.42218C64.3492 8.34876 46.6407 18.4185 32.4885 32.5695C27.4387 37.618 22.8814 43.1363 18.8785 49.0495C17.6947 50.6341 16.6317 52.3054 15.6986 54.0495C7.92677 67.0812 2.90342 81.5653 0.937534 96.6106C-1.02835 111.656 0.104806 126.944 4.26728 141.536C8.42975 156.127 15.5335 169.712 25.1416 181.456C34.7497 193.199 46.6589 202.853 60.1366 209.823C73.6143 216.792 88.3755 220.931 103.512 221.984C118.649 223.037 133.841 220.981 148.154 215.944C162.467 210.908 175.597 202.996 186.739 192.695C197.88 182.395 206.796 169.924 212.939 156.049C213.604 154.673 214.191 153.261 214.699 151.819C222.529 131.632 224.356 109.611 219.959 88.4095L219.899 88.0695ZM181.329 37.2195C181.969 37.8295 182.599 38.4495 183.229 39.0795C192.912 48.7289 200.551 60.2313 205.689 72.8995C205.804 73.1848 205.842 73.496 205.796 73.8007C205.751 74.1053 205.624 74.3921 205.43 74.6312C205.236 74.8703 204.981 75.0529 204.693 75.1599C204.404 75.2669 204.092 75.2944 203.789 75.2395C200.529 74.6868 197.223 74.4524 193.919 74.5395C192.696 74.5663 191.503 74.1561 190.556 73.3826C189.608 72.6091 188.967 71.523 188.749 70.3195C186.979 59.9269 184.117 49.7504 180.209 39.9595L179.579 38.4495C179.476 38.2187 179.457 37.9594 179.524 37.716C179.591 37.4726 179.741 37.2601 179.948 37.1148C180.154 36.9696 180.405 36.9006 180.657 36.9197C180.909 36.9388 181.146 37.0448 181.329 37.2195ZM191.899 102.46C191.895 102.207 191.972 101.96 192.118 101.754C192.264 101.548 192.471 101.394 192.711 101.314C192.95 101.234 193.208 101.232 193.449 101.308C193.689 101.385 193.899 101.536 194.049 101.74C194.889 102.91 195.689 104.09 196.459 105.27C197.479 106.836 198.429 108.396 199.309 109.949C199.58 110.42 199.694 110.964 199.635 111.504C199.576 112.043 199.346 112.55 198.979 112.949C197.785 114.283 196.492 115.636 195.099 117.009L193.569 118.549C193.427 118.703 193.24 118.808 193.036 118.85C192.831 118.892 192.619 118.869 192.428 118.784C192.237 118.699 192.077 118.557 191.972 118.376C191.866 118.196 191.82 117.987 191.839 117.779C191.909 116.109 191.949 114.429 191.979 112.779C192.009 109.289 191.989 105.86 191.899 102.46ZM51.8985 28.1295C69.1589 15.7695 89.8692 9.15064 111.099 9.20949C116.723 9.20609 122.339 9.66431 127.889 10.5795C128.21 10.6369 128.507 10.7849 128.747 11.0059C128.987 11.227 129.158 11.512 129.241 11.8273C129.324 12.1426 129.315 12.4751 129.216 12.7855C129.116 13.096 128.93 13.3715 128.679 13.5795C123.359 17.7595 118.409 23.9395 114.029 31.9495C113.51 32.8969 112.687 33.641 111.692 34.0605C110.696 34.4799 109.589 34.5501 108.549 34.2595C94.9215 30.2746 80.7627 28.4094 66.5686 28.7295C61.9359 28.8805 57.3204 29.3684 52.7585 30.1895C52.5056 30.2255 52.2479 30.1762 52.0261 30.0495C51.8043 29.9227 51.631 29.7257 51.5335 29.4896C51.4361 29.2534 51.4201 28.9916 51.488 28.7453C51.5559 28.499 51.7038 28.2823 51.9085 28.1295H51.8985ZM37.3386 180.469C35.1986 176.419 37.9685 167.049 52.0485 152.809C52.3959 152.459 52.6656 152.039 52.8398 151.578C53.014 151.116 53.0889 150.623 53.0597 150.13C53.0304 149.638 52.8977 149.157 52.67 148.719C52.4424 148.281 52.125 147.896 51.7385 147.589L50.0586 146.249C49.3833 145.702 48.5288 145.424 47.6604 145.47C46.7921 145.516 45.9718 145.883 45.3585 146.499L44.8086 147.049C37.8086 154.269 32.8086 160.959 30.0886 166.969C29.9105 167.358 29.6319 167.692 29.2815 167.937C28.9311 168.182 28.5217 168.329 28.0955 168.362C27.6693 168.396 27.2419 168.315 26.8574 168.128C26.473 167.942 26.1454 167.655 25.9085 167.299C14.9087 150.658 9.06778 131.138 9.11855 111.189C9.11344 104.038 9.85751 96.9058 11.3386 89.9095C11.3266 89.6443 11.4205 89.3852 11.5996 89.1892C11.7787 88.9932 12.0283 88.8764 12.2936 88.8645C12.5588 88.8526 12.8179 88.9465 13.0138 89.1256C13.2098 89.3047 13.3266 89.5543 13.3386 89.8195C15.7448 97.4425 19.2158 104.687 23.6485 111.339C30.5993 121.781 38.9696 131.205 48.5185 139.339C51.9385 142.339 55.5186 145.17 59.3086 147.93C67.1515 153.67 75.4223 158.802 84.0485 163.279C87.9585 165.279 91.7686 167.279 95.6686 168.999C96.7415 169.487 97.9012 169.756 99.0793 169.788C100.258 169.821 101.43 169.617 102.529 169.189C104.369 168.469 106.219 167.719 108.079 166.939C109.06 166.531 109.862 165.782 110.337 164.831C110.813 163.88 110.93 162.79 110.669 161.759C110.599 161.489 110.549 161.28 110.519 161.15C107.306 147.137 105.629 132.815 105.519 118.439V117.889C105.519 117.059 105.519 116.219 105.519 115.389C105.519 115.129 105.519 114.679 105.519 114.389V114.069C105.519 113.119 105.519 112.17 105.519 111.21C105.519 108.6 105.659 106 105.799 103.43C106.799 85.0395 109.869 67.7595 114.799 53.2295C115.018 52.5836 114.973 51.877 114.674 51.2642C114.374 50.6513 113.843 50.1822 113.199 49.9595C111.879 49.5195 110.569 49.0895 109.269 48.6795C108.632 48.479 107.942 48.5351 107.346 48.8359C106.75 49.1366 106.295 49.6582 106.079 50.2895C100.709 66.0695 97.3885 84.7995 96.4985 104.62C96.4444 105.855 96.0832 107.059 95.4477 108.12C94.8122 109.181 93.9224 110.068 92.8585 110.699C81.7615 117.217 71.1264 124.491 61.0286 132.469C60.0862 133.218 58.9117 133.614 57.7083 133.589C56.5048 133.563 55.3482 133.118 54.4385 132.329C45.5629 124.777 37.7816 116.027 31.3185 106.329C19.6485 88.4095 16.8685 71.5295 23.5085 58.8095L23.5586 58.7195C24.4086 57.3095 25.2886 55.9295 26.1986 54.5595C33.8286 44.4695 48.0186 38.6195 66.8386 37.9595C68.0252 37.9195 69.2252 37.8995 70.4385 37.8995C82.8172 38.034 95.1163 39.8988 106.979 43.4395L107.809 43.6895L108.449 43.8695C111.362 44.7428 114.279 45.7028 117.199 46.7495L117.409 46.8195L119.689 47.6695L120.409 47.9395L121.099 48.1995C127.373 50.6274 133.509 53.3982 139.479 56.4995C150.836 62.3634 161.522 69.4451 171.349 77.6195C153.479 81.7095 132.719 89.6195 111.829 100.259C111.353 100.498 110.949 100.86 110.659 101.306C110.37 101.752 110.204 102.268 110.179 102.799C110.099 104.089 110.009 106.689 109.939 108.799C109.929 109.096 109.997 109.389 110.136 109.65C110.275 109.912 110.481 110.132 110.732 110.289C110.983 110.446 111.271 110.534 111.567 110.545C111.863 110.556 112.157 110.488 112.419 110.349C133.089 99.4895 153.729 91.3495 171.419 87.0895C173.016 86.7011 174.413 85.7329 175.337 84.3728C176.261 83.0127 176.646 81.3579 176.419 79.7295C176.092 77.3695 175.725 75.0362 175.319 72.7295C174.807 69.8707 173.24 67.3083 170.929 65.5495C162.358 59.0439 153.244 53.286 143.689 48.3395C137.197 44.9637 130.52 41.9589 123.689 39.3395C123.35 39.2117 123.043 39.0122 122.789 38.7548C122.535 38.4974 122.34 38.1881 122.216 37.8481C122.093 37.5081 122.044 37.1455 122.074 36.785C122.104 36.4245 122.211 36.0746 122.389 35.7595C129.299 23.3895 137.519 16.4695 145.529 16.4695H145.779C155.229 16.6395 164.649 26.4695 171.619 43.4695C175.402 52.8991 178.158 62.7091 179.839 72.7295C180.639 77.3295 181.279 82.0795 181.759 86.9495L181.629 87.0295L181.799 87.1995C182.616 95.6368 182.95 104.114 182.799 112.589C182.699 118.089 182.409 123.509 181.939 128.819C167.747 140.051 152.53 149.921 136.489 158.299C130.849 161.299 125.199 164.069 119.619 166.639L119.359 166.759L118.069 167.339C113.442 169.439 108.869 171.373 104.349 173.139L103.589 173.43L102.589 173.799L100.329 174.659L99.7085 174.889L96.9786 175.889L96.6486 176.02C87.7655 179.259 78.6493 181.82 69.3785 183.68C49.0685 187.57 39.5686 184.569 37.3386 180.469ZM65.2886 140.879C75.1201 132.973 85.5031 125.778 96.3585 119.349C96.5314 133.396 98.1161 147.39 101.089 161.12C96.8086 159.286 92.5452 157.286 88.2985 155.12C80.283 150.955 72.5914 146.195 65.2886 140.879ZM124.289 212.339C119.924 212.902 115.529 213.182 111.129 213.18C91.6067 213.234 72.4855 207.643 56.0685 197.079C55.8244 196.922 55.6366 196.691 55.5323 196.42C55.428 196.149 55.4126 195.852 55.4882 195.571C55.5639 195.291 55.7268 195.042 55.9533 194.86C56.1799 194.678 56.4583 194.573 56.7485 194.559H57.5185C62.0723 194.233 66.6011 193.621 71.0785 192.729C82.7646 190.35 94.2237 186.968 105.329 182.62C105.854 182.425 106.435 182.442 106.948 182.668C107.462 182.894 107.867 183.31 108.079 183.829C112.799 195.309 118.599 203.979 125.079 209.499C125.313 209.703 125.484 209.969 125.572 210.266C125.661 210.563 125.662 210.879 125.577 211.177C125.492 211.475 125.324 211.743 125.092 211.949C124.86 212.155 124.575 212.29 124.269 212.339H124.289ZM167.409 185.109C160.119 199.429 151.159 207.469 142.469 207.309C133.019 207.139 123.599 197.309 116.619 180.309C116.408 179.789 116.409 179.207 116.622 178.687C116.835 178.168 117.243 177.752 117.759 177.529L117.979 177.439C118.435 177.237 118.948 177.202 119.429 177.339C131.784 180.912 144.568 182.786 157.429 182.909C158.739 182.909 160.039 182.909 161.319 182.839C162.829 182.789 164.319 182.709 165.779 182.589C166.08 182.58 166.379 182.649 166.645 182.79C166.912 182.93 167.138 183.138 167.3 183.392C167.462 183.646 167.556 183.938 167.571 184.239C167.587 184.54 167.524 184.84 167.389 185.109H167.409ZM170.569 172.789C167.39 173.25 164.188 173.534 160.979 173.639C152.366 173.88 143.754 173.192 135.289 171.589C135.052 171.545 134.835 171.427 134.668 171.253C134.502 171.078 134.395 170.856 134.362 170.617C134.328 170.379 134.371 170.136 134.484 169.922C134.596 169.709 134.773 169.537 134.989 169.43C136.919 168.43 138.859 167.43 140.789 166.43C153.76 159.595 166.24 151.867 178.139 143.299C178.323 143.165 178.544 143.089 178.772 143.081C179 143.072 179.225 143.132 179.419 143.252C179.613 143.372 179.767 143.547 179.862 143.755C179.956 143.963 179.986 144.194 179.949 144.419C178.52 153.19 176.386 161.832 173.569 170.259C173.35 170.917 172.954 171.501 172.425 171.947C171.895 172.393 171.253 172.685 170.569 172.789ZM185.569 180.879C184.799 181.699 184.019 182.509 183.219 183.309C181.825 184.703 180.402 186.036 178.949 187.309C178.755 187.485 178.506 187.587 178.245 187.6C177.985 187.613 177.727 187.535 177.518 187.379C177.308 187.223 177.158 187 177.095 186.747C177.031 186.493 177.057 186.226 177.169 185.99L177.609 184.99C178.222 183.656 178.812 182.276 179.379 180.849C179.448 180.687 179.553 180.542 179.687 180.426C179.82 180.31 179.978 180.226 180.149 180.18C181.599 179.82 183.009 179.409 184.379 178.969C184.63 178.843 184.92 178.816 185.191 178.892C185.462 178.968 185.695 179.143 185.844 179.382C185.993 179.621 186.047 179.907 185.996 180.184C185.945 180.461 185.793 180.709 185.569 180.879ZM206.069 148.529C205.579 149.779 205.069 151.01 204.519 152.24C204.439 152.41 204.359 152.579 204.269 152.749C200.909 159.219 195.269 164.32 187.729 167.87C187.352 168.04 186.934 168.099 186.525 168.041C186.116 167.982 185.731 167.809 185.417 167.541C185.102 167.272 184.871 166.92 184.749 166.525C184.627 166.13 184.62 165.708 184.729 165.309C187.332 155.843 189.21 146.191 190.349 136.439C190.582 134.54 191.516 132.796 192.969 131.549C196.069 128.859 198.969 126.179 201.629 123.549C201.926 123.249 202.297 123.031 202.704 122.916C203.111 122.802 203.541 122.794 203.952 122.895C204.362 122.996 204.74 123.201 205.048 123.491C205.356 123.781 205.583 124.146 205.709 124.549C208.339 133.269 208.489 141.419 206.079 148.529H206.069ZM208.069 100.749C207.893 101.062 207.64 101.324 207.333 101.509C207.027 101.695 206.678 101.798 206.32 101.809C205.961 101.82 205.607 101.739 205.289 101.572C204.972 101.406 204.703 101.16 204.509 100.859L204.119 100.249C200.968 95.4319 197.476 90.8468 193.669 86.5295C193.456 86.2834 193.319 85.9817 193.273 85.6601C193.227 85.3385 193.274 85.0104 193.409 84.7148C193.544 84.4191 193.76 84.1682 194.033 83.9919C194.306 83.8155 194.624 83.7209 194.949 83.7195C204.089 83.7195 208.879 85.9795 210.339 88.7195C211.639 91.0395 211.269 95.0695 208.119 100.729L208.069 100.749ZM212.999 114.229C212.995 114.376 212.941 114.516 212.846 114.628C212.751 114.739 212.62 114.814 212.476 114.841C212.333 114.868 212.184 114.845 212.055 114.775C211.926 114.706 211.825 114.594 211.769 114.46C211.659 114.19 211.539 113.909 211.419 113.639C211.309 113.392 211.267 113.12 211.297 112.852C211.327 112.583 211.428 112.327 211.589 112.109L211.959 111.62C212.409 111.04 213.049 111.13 213.049 111.77C213.099 112.62 213.079 113.359 213.049 114.229H212.999ZM536.639 90.1095H574.979C575.79 90.1069 576.592 89.9324 577.332 89.5976C578.071 89.2627 578.732 88.7751 579.269 88.1667C579.807 87.5584 580.209 86.8431 580.45 86.068C580.692 85.2928 580.766 84.4754 580.669 83.6695C580.465 82.2704 579.761 80.9925 578.687 80.073C577.613 79.1535 576.242 78.6548 574.829 78.6695H527.219C525.7 78.6748 524.246 79.2801 523.173 80.3536C522.099 81.427 521.494 82.8814 521.489 84.3995V141.729C521.494 143.248 522.099 144.702 523.173 145.775C524.246 146.849 525.7 147.454 527.219 147.46H575.029C575.839 147.457 576.64 147.282 577.379 146.948C578.118 146.614 578.778 146.127 579.315 145.52C579.852 144.913 580.255 144.199 580.497 143.425C580.739 142.651 580.814 141.835 580.719 141.029C580.515 139.63 579.811 138.352 578.737 137.433C577.663 136.513 576.292 136.015 574.879 136.029H536.689C535.699 136.029 534.751 135.637 534.051 134.937C533.352 134.238 532.959 133.289 532.959 132.299V122.549C532.959 121.56 533.352 120.611 534.051 119.912C534.751 119.212 535.699 118.819 536.689 118.819H565.469C566.279 118.817 567.08 118.642 567.819 118.308C568.558 117.974 569.218 117.487 569.755 116.88C570.292 116.273 570.695 115.559 570.937 114.785C571.179 114.011 571.254 113.195 571.159 112.389C570.955 110.99 570.251 109.712 569.177 108.793C568.103 107.873 566.732 107.375 565.319 107.389H536.689C535.699 107.389 534.751 106.997 534.051 106.297C533.352 105.597 532.959 104.649 532.959 103.659V93.9095C532.949 93.4138 533.039 92.9212 533.222 92.4606C533.405 91.9999 533.679 91.5804 534.026 91.2266C534.373 90.8728 534.788 90.5918 535.245 90.4C535.702 90.2082 536.193 90.1094 536.689 90.1095H536.639ZM653.829 112.389C648.569 109.039 641.489 107.319 632.599 107.319C620.839 107.319 614.909 104.45 614.909 98.7095C614.909 92.9695 620.839 90.1095 632.599 90.1095C639.004 90.0927 645.352 91.3222 651.289 93.7295C654.739 94.7795 657.129 93.5395 658.459 90.1895C659.609 87.1895 658.079 84.3595 654.929 82.9295C647.881 79.9659 640.293 78.5015 632.649 78.6295C623.949 78.6295 616.969 80.4395 611.519 83.9795C609.014 85.5186 606.957 87.688 605.553 90.2711C604.149 92.8542 603.447 95.7604 603.519 98.6995C603.519 105.299 606.199 110.369 611.459 113.699C616.719 117.029 623.789 118.77 632.679 118.77C644.439 118.77 650.369 121.639 650.369 127.379C650.369 133.119 644.439 135.979 632.679 135.979H629.809C623.458 135.886 617.176 134.657 611.259 132.349C610.557 132.086 609.809 131.966 609.061 131.997C608.312 132.029 607.577 132.21 606.9 132.531C606.222 132.852 605.616 133.306 605.118 133.866C604.62 134.425 604.239 135.08 603.999 135.789C603.485 137.248 603.568 138.851 604.231 140.249C604.895 141.646 606.083 142.725 607.539 143.249C614.604 146.133 622.178 147.561 629.809 147.449H632.679C641.379 147.449 648.359 145.639 653.679 142.099C656.216 140.586 658.306 138.425 659.734 135.839C661.163 133.253 661.879 130.333 661.809 127.379C661.809 120.799 659.129 115.729 653.879 112.389H653.829ZM768.609 78.6395C767.089 78.6421 765.632 79.2464 764.556 80.3201C763.481 81.3938 762.874 82.8497 762.869 84.3695V141.729C762.93 143.209 763.562 144.608 764.63 145.633C765.699 146.658 767.123 147.23 768.604 147.23C770.084 147.23 771.508 146.658 772.577 145.633C773.645 144.608 774.277 143.209 774.339 141.729V84.3695C774.333 82.86 773.735 81.4131 772.672 80.3411C771.61 79.269 770.168 78.6579 768.659 78.6395H768.609ZM738.289 78.6395H681.129C680.317 78.6407 679.515 78.8138 678.776 79.1476C678.036 79.4813 677.376 79.968 676.838 80.5756C676.301 81.1832 675.898 81.8979 675.657 82.6725C675.415 83.4471 675.341 84.264 675.439 85.0695C675.638 86.4704 676.341 87.7507 677.415 88.671C678.49 89.5913 679.864 90.0884 681.279 90.0695H700.339C701.33 90.0695 702.282 90.4635 702.983 91.1649C703.684 91.8663 704.079 92.8176 704.079 93.8095V141.729C704.081 142.54 704.256 143.341 704.59 144.08C704.924 144.819 705.411 145.479 706.018 146.016C706.625 146.553 707.339 146.956 708.113 147.198C708.887 147.44 709.703 147.515 710.509 147.419C711.909 147.216 713.189 146.511 714.108 145.435C715.028 144.358 715.526 142.985 715.509 141.569V93.8495C715.507 93.358 715.603 92.871 715.791 92.4167C715.978 91.9623 716.253 91.5495 716.601 91.202C716.949 90.8544 717.361 90.579 717.816 90.3915C718.27 90.204 718.757 90.1082 719.249 90.1095H738.449C739.261 90.1067 740.063 89.9322 740.803 89.5975C741.543 89.2627 742.204 88.7753 742.742 88.1671C743.28 87.559 743.684 86.8439 743.926 86.0687C744.169 85.2936 744.244 84.476 744.149 83.6695C743.953 82.27 743.256 80.9891 742.187 80.0642C741.119 79.1393 739.752 78.6331 738.339 78.6395H738.289ZM496.959 135.999H458.789C457.796 135.999 456.843 135.606 456.14 134.905C455.437 134.204 455.041 133.252 455.039 132.259V84.5195C455.053 83.1058 454.555 81.7347 453.635 80.6607C452.716 79.5867 451.438 78.8828 450.039 78.6795C449.233 78.5821 448.415 78.6564 447.64 78.8976C446.865 79.1388 446.15 79.5414 445.541 80.0789C444.933 80.6164 444.445 81.2766 444.11 82.0162C443.776 82.7557 443.601 83.5577 443.599 84.3695V141.729C443.604 143.249 444.211 144.705 445.286 145.779C446.362 146.853 447.819 147.457 449.339 147.46H497.139C497.95 147.458 498.752 147.285 499.491 146.951C500.231 146.618 500.891 146.131 501.429 145.523C501.966 144.916 502.369 144.201 502.61 143.427C502.852 142.652 502.926 141.835 502.829 141.029C502.635 139.618 501.931 138.326 500.849 137.399C499.767 136.472 498.383 135.974 496.959 135.999ZM310.029 90.1095C313.045 90.056 316.039 90.6322 318.82 91.8014C321.6 92.9705 324.107 94.7069 326.179 96.8995C326.996 97.6845 328.025 98.2136 329.139 98.422C330.254 98.6303 331.404 98.5088 332.45 98.0723C333.496 97.6358 334.392 96.9034 335.028 95.9649C335.664 95.0265 336.011 93.9228 336.029 92.7895C335.994 91.8954 335.761 91.0202 335.348 90.2266C334.935 89.433 334.351 88.7407 333.639 88.1995C328.736 83.5623 322.575 80.4728 315.927 79.3172C309.278 78.1616 302.436 78.9912 296.256 81.7022C290.077 84.4132 284.833 88.8854 281.181 94.56C277.528 100.234 275.629 106.86 275.721 113.607C275.813 120.355 277.891 126.926 281.697 132.499C285.502 138.072 290.866 142.4 297.117 144.942C303.368 147.484 310.23 148.127 316.845 146.791C323.46 145.454 329.534 142.198 334.309 137.43C335.314 136.337 335.858 134.899 335.827 133.414C335.796 131.93 335.192 130.516 334.142 129.467C333.091 128.418 331.676 127.815 330.192 127.786C328.707 127.757 327.269 128.303 326.179 129.309C324.089 131.472 321.577 133.182 318.799 134.333C316.021 135.484 313.035 136.051 310.029 135.999C307.011 136.014 304.02 135.43 301.229 134.282C298.438 133.134 295.902 131.444 293.768 129.31C291.634 127.176 289.944 124.64 288.796 121.849C287.648 119.058 287.064 116.067 287.079 113.049C287.027 110.043 287.594 107.057 288.745 104.279C289.896 101.501 291.606 98.9889 293.769 96.8995C295.874 94.7202 298.402 92.9938 301.198 91.8263C303.994 90.6587 306.999 90.0745 310.029 90.1095ZM376.029 90.1095H414.359C415.171 90.1067 415.973 89.9322 416.713 89.5975C417.453 89.2627 418.114 88.7753 418.652 88.1671C419.19 87.559 419.594 86.8439 419.836 86.0687C420.079 85.2936 420.154 84.476 420.059 83.6695C419.855 82.2686 419.15 80.9894 418.074 80.0697C416.997 79.1499 415.624 78.6524 414.209 78.6695H366.509C364.99 78.6747 363.534 79.2798 362.459 80.353C361.384 81.4261 360.776 82.8805 360.769 84.3995V141.729C360.776 143.248 361.384 144.703 362.459 145.776C363.534 146.849 364.99 147.454 366.509 147.46H414.309C415.12 147.458 415.922 147.285 416.662 146.951C417.402 146.618 418.063 146.131 418.602 145.524C419.14 144.916 419.544 144.202 419.786 143.427C420.029 142.653 420.105 141.835 420.009 141.029C419.805 139.629 419.1 138.349 418.024 137.43C416.947 136.51 415.574 136.012 414.159 136.029H375.979C375.488 136.029 375.002 135.933 374.549 135.745C374.096 135.557 373.684 135.281 373.337 134.933C372.991 134.586 372.716 134.174 372.53 133.72C372.343 133.266 372.247 132.78 372.249 132.289V122.529C372.247 122.039 372.343 121.553 372.53 121.099C372.716 120.645 372.991 120.233 373.337 119.886C373.684 119.538 374.096 119.262 374.549 119.074C375.002 118.886 375.488 118.789 375.979 118.789H404.749C405.56 118.788 406.362 118.615 407.102 118.281C407.842 117.948 408.503 117.461 409.042 116.854C409.58 116.246 409.984 115.532 410.226 114.757C410.469 113.983 410.545 113.165 410.449 112.359C410.245 110.959 409.54 109.679 408.464 108.76C407.387 107.84 406.014 107.342 404.599 107.359H375.979C375.488 107.359 375.002 107.263 374.549 107.075C374.096 106.887 373.684 106.611 373.337 106.263C372.991 105.916 372.716 105.504 372.53 105.05C372.343 104.596 372.247 104.11 372.249 103.62V93.8895C372.242 93.3955 372.334 92.905 372.518 92.4467C372.702 91.9884 372.976 91.5713 373.323 91.2196C373.67 90.8679 374.084 90.5887 374.539 90.3981C374.995 90.2076 375.484 90.1095 375.979 90.1095H376.029Z" fill="#7B2BF9"/>
</svg>
