<svg width="1654" height="422" viewBox="0 0 1654 422" fill="none" xmlns="http://www.w3.org/2000/svg">
<path d="M539.76 109.72C543.63 109.72 546.99 110.49 549.66 112.13C552.33 113.77 555 116.87 557.58 121.52L608.64 214.26C609.16 215.29 609.24 216.15 608.98 216.84C608.72 217.53 607.95 217.87 606.74 217.87H587.11C585.39 217.87 584.18 217.18 583.58 215.89L572.64 196H500.05L489.37 215.89C488.68 217.27 487.48 217.87 485.84 217.87H465.78C464.4 217.87 463.63 217.53 463.37 216.84C463.11 216.15 463.2 215.29 463.71 214.26L514.43 121.44C517.01 116.79 519.51 113.69 522.01 112.05C524.51 110.41 527.35 109.64 530.62 109.64H539.75V109.73L539.76 109.72ZM509.71 178H562.92L538.38 132.71C537.95 132.02 537.43 131.59 536.66 131.59H535.71C535.02 131.59 534.42 131.93 533.99 132.71L509.71 178Z" fill="black"/>
<path d="M721.1 109.72C732.98 109.72 741.42 112.39 746.59 117.73C751.76 123.07 754.34 130.99 754.34 141.5V150.28C754.34 159.15 752.53 166.12 748.92 171.29C745.3 176.46 739.45 179.73 731.27 181.19L757.7 213.91C758.22 214.43 758.39 215.2 758.13 216.23C757.96 217.26 757.1 217.78 755.63 217.78H735.74C734.36 217.78 733.5 217.61 732.98 217.35C732.46 217.01 731.95 216.49 731.43 215.8L706.98 183.68H657.04V214.42C657.04 216.66 655.92 217.78 653.68 217.78H636.98C634.57 217.78 633.45 216.66 633.45 214.42V114.36C633.45 111.26 635 109.71 638.1 109.71H721.11L721.1 109.72ZM657.12 164.83H716.28C721.53 164.83 725.24 163.71 727.39 161.47C729.54 159.23 730.66 155.79 730.66 151.14V144.68C730.66 140.03 729.54 136.59 727.39 134.35C725.24 132.11 721.53 130.99 716.28 130.99H659.11C657.73 130.99 657.13 131.59 657.13 132.88V164.83H657.12Z" fill="black"/>
<path d="M883.59 109.72C894.18 109.72 901.76 111.87 906.24 116.09C910.72 120.31 912.96 126.68 912.96 135.21V142.62C912.96 151.23 909.69 157.77 903.06 162.25C910.12 166.38 913.74 173.01 913.74 182.14V191.1C913.74 195.23 913.31 198.94 912.36 202.21C911.41 205.48 909.95 208.32 907.8 210.65C905.65 212.97 902.89 214.78 899.36 215.99C895.83 217.2 891.52 217.88 886.36 217.88H794.57C791.47 217.88 789.92 216.33 789.92 213.23V114.38C789.92 111.28 791.47 109.73 794.57 109.73H883.6L883.59 109.72ZM813.59 154.67H876.96C882.13 154.67 885.57 153.9 887.46 152.35C889.35 150.8 890.22 148.56 890.22 145.55V140.3C890.22 137.11 889.36 134.79 887.55 133.24C885.74 131.78 882.81 131 878.85 131H815.65C814.27 131 813.67 131.69 813.67 132.98V154.68H813.58L813.59 154.67ZM813.59 171.46V194.45C813.59 195.83 814.28 196.43 815.57 196.43H878.94C883.07 196.43 886 195.66 887.72 194.19C889.44 192.73 890.39 190.32 890.39 187.04V181.18C890.39 177.99 889.44 175.58 887.55 173.95C885.66 172.31 882.13 171.45 876.96 171.45H813.59V171.46Z" fill="black"/>
<path d="M971.33 109.72C973.57 109.72 974.69 110.84 974.69 113.08V214.43C974.69 216.67 973.57 217.79 971.33 217.79H954.63C952.22 217.79 951.1 216.67 951.1 214.43V113.08C951.1 110.84 952.31 109.72 954.63 109.72H971.33Z" fill="black"/>
<path d="M1133.21 109.72C1135.62 109.72 1136.74 110.84 1136.74 113.08V128.23C1136.74 130.64 1135.53 131.76 1133.21 131.76H1084.73V214.42C1084.73 216.66 1083.61 217.78 1081.37 217.78H1064.49C1062.25 217.78 1061.13 216.66 1061.13 214.42V131.76H1012.65C1010.24 131.76 1009.12 130.55 1009.12 128.23V113.08C1009.12 110.84 1010.33 109.72 1012.65 109.72H1133.2H1133.21Z" fill="black"/>
<path d="M1255.4 109.72C1267.28 109.72 1275.72 112.39 1280.89 117.73C1286.06 123.07 1288.64 130.99 1288.64 141.5V150.28C1288.64 159.15 1286.83 166.12 1283.22 171.29C1279.6 176.46 1273.75 179.73 1265.57 181.19L1292 213.91C1292.52 214.43 1292.69 215.2 1292.43 216.23C1292.26 217.26 1291.4 217.78 1289.93 217.78H1270.04C1268.66 217.78 1267.8 217.61 1267.28 217.35C1266.76 217.01 1266.25 216.49 1265.73 215.8L1241.28 183.68H1191.34V214.42C1191.34 216.66 1190.22 217.78 1187.98 217.78H1171.28C1168.87 217.78 1167.75 216.66 1167.75 214.42V114.36C1167.75 111.26 1169.3 109.71 1172.4 109.71H1255.41L1255.4 109.72ZM1191.51 164.83H1250.67C1255.92 164.83 1259.63 163.71 1261.78 161.47C1263.93 159.23 1265.05 155.79 1265.05 151.14V144.68C1265.05 140.03 1263.93 136.59 1261.78 134.35C1259.63 132.11 1255.92 130.99 1250.67 130.99H1193.5C1192.12 130.99 1191.52 131.59 1191.52 132.88V164.83H1191.51Z" fill="black"/>
<path d="M1342.28 109.72C1344.52 109.72 1345.64 110.84 1345.64 113.08V174.73C1345.64 178.86 1345.98 182.31 1346.67 184.98C1347.36 187.74 1348.48 189.89 1350.03 191.44C1351.58 193.08 1353.65 194.2 1356.32 194.8C1358.99 195.49 1362.26 195.83 1366.31 195.83H1409.1C1413.15 195.83 1416.42 195.49 1419.09 194.8C1421.76 194.11 1423.83 192.99 1425.38 191.44C1426.93 189.8 1428.05 187.65 1428.65 184.98C1429.25 182.22 1429.6 178.87 1429.6 174.73V113.08C1429.6 110.84 1430.72 109.72 1432.96 109.72H1449.84C1452.08 109.72 1453.2 110.84 1453.2 113.08V177.06C1453.2 184.47 1452.43 190.75 1450.88 196C1449.33 201.17 1446.83 205.39 1443.39 208.66C1439.95 211.93 1435.47 214.26 1429.96 215.72C1424.45 217.18 1417.82 217.87 1409.98 217.87H1365.46C1357.62 217.87 1350.99 217.18 1345.57 215.72C1340.15 214.26 1335.67 211.93 1332.22 208.66C1328.78 205.39 1326.28 201.17 1324.64 196C1323 190.83 1322.23 184.46 1322.23 177.06V113.08C1322.23 110.84 1323.44 109.72 1325.76 109.72H1342.29H1342.28Z" fill="black"/>
<path d="M1519.57 109.72C1521.81 109.72 1523.79 109.89 1525.43 110.15C1527.07 110.49 1528.53 111.01 1529.74 111.96C1530.95 112.82 1532.06 114.03 1533.1 115.49C1534.05 116.95 1535.08 118.93 1536.11 121.43L1568.23 195.57C1568.66 196.52 1569.35 196.95 1570.38 196.95H1572.27C1573.3 196.95 1573.99 196.52 1574.42 195.57L1606.54 121.43C1607.57 118.93 1608.61 116.95 1609.55 115.49C1610.5 114.03 1611.62 112.82 1612.91 111.96C1614.12 111.1 1615.58 110.5 1617.13 110.15C1618.77 109.81 1620.66 109.72 1622.9 109.72H1639.43C1644.77 109.72 1648.39 110.93 1650.28 113.34C1652.17 115.75 1653.04 119.88 1653.04 125.74V214.43C1653.04 216.67 1651.83 217.79 1649.51 217.79H1633.75C1631.51 217.79 1630.39 216.67 1630.39 214.43V133.75C1630.39 132.72 1629.96 132.2 1629.18 132.2H1627.8C1626.77 132.2 1626.08 132.63 1625.82 133.41L1594.65 202.64C1593.44 205.4 1592.15 207.81 1590.86 209.7C1589.57 211.59 1588.19 213.14 1586.73 214.44C1585.27 215.65 1583.54 216.59 1581.65 217.11C1579.76 217.63 1577.52 217.88 1574.93 217.88H1567.52C1564.94 217.88 1562.7 217.62 1560.8 217.11C1558.91 216.59 1557.18 215.73 1555.72 214.44C1554.26 213.23 1552.79 211.6 1551.59 209.7C1550.3 207.81 1549.01 205.48 1547.8 202.64L1516.63 133.41C1516.29 132.55 1515.68 132.2 1514.65 132.2H1513.27C1512.41 132.2 1512.06 132.72 1512.06 133.75V214.43C1512.06 216.67 1510.94 217.79 1508.7 217.79H1492.94C1490.53 217.79 1489.41 216.67 1489.41 214.43V125.74C1489.41 119.88 1490.36 115.75 1492.17 113.34C1494.06 110.93 1497.68 109.72 1503.11 109.72H1519.56H1519.57Z" fill="black"/>
<path d="M521.98 249.82C526.49 249.82 530.34 250.25 533.51 251.11C536.69 251.97 539.27 253.34 541.26 255.21C543.25 257.08 544.69 259.5 545.58 262.47C546.47 265.44 546.92 269.06 546.92 273.34V288.66C546.92 292.93 546.48 296.57 545.58 299.57C544.69 302.57 543.25 305 541.26 306.87C539.27 308.74 536.69 310.09 533.51 310.92C530.33 311.75 526.49 312.17 521.98 312.17H494.46C489.95 312.17 486.12 311.75 482.97 310.92C479.82 310.09 477.25 308.74 475.27 306.87C473.28 305 471.82 302.57 470.91 299.57C469.99 296.57 469.53 292.93 469.53 288.66V273.34C469.53 269.07 469.99 265.44 470.91 262.47C471.83 259.5 473.28 257.08 475.27 255.21C477.26 253.34 479.82 251.98 482.97 251.11C486.12 250.25 489.95 249.82 494.46 249.82H521.98ZM483.15 287.67C483.15 289.99 483.34 291.93 483.73 293.5C484.11 295.07 484.75 296.32 485.65 297.24C486.54 298.16 487.74 298.82 489.26 299.2C490.77 299.59 492.69 299.78 495.01 299.78H521.46C523.77 299.78 525.69 299.59 527.2 299.2C528.71 298.82 529.92 298.16 530.81 297.24C531.7 296.32 532.34 295.07 532.73 293.5C533.11 291.93 533.31 289.98 533.31 287.67V274.31C533.31 271.99 533.12 270.05 532.73 268.48C532.34 266.9 531.71 265.66 530.81 264.74C529.92 263.82 528.72 263.17 527.2 262.78C525.69 262.4 523.77 262.2 521.46 262.2H495.01C492.69 262.2 490.78 262.4 489.26 262.78C487.75 263.17 486.54 263.82 485.65 264.74C484.76 265.66 484.12 266.91 483.73 268.48C483.34 270.05 483.15 272 483.15 274.31V287.67Z" fill="black"/>
<path d="M617.36 249.82C624.19 249.82 629.09 251.37 632.06 254.45C635.03 257.54 636.51 262.11 636.51 268.17V273.25C636.51 278.36 635.47 282.39 633.39 285.36C631.31 288.33 627.93 290.23 623.24 291.06L638.47 309.94C638.77 310.24 638.85 310.68 638.74 311.28C638.62 311.87 638.15 312.17 637.32 312.17H625.83C625.06 312.17 624.52 312.08 624.23 311.9C623.93 311.72 623.64 311.43 623.34 311.01L609.27 292.48H580.5V310.2C580.5 311.5 579.85 312.16 578.54 312.16H568.92C567.55 312.16 566.87 311.51 566.87 310.2V252.49C566.87 250.71 567.76 249.82 569.54 249.82H617.37H617.36ZM580.49 281.62H614.6C617.63 281.62 619.77 280.97 621.01 279.66C622.26 278.36 622.88 276.37 622.88 273.69V269.95C622.88 267.28 622.26 265.29 621.01 263.98C619.76 262.68 617.62 262.02 614.6 262.02H581.65C580.88 262.02 580.49 262.38 580.49 263.09V281.62Z" fill="black"/>
<path d="M710.35 249.82C716.46 249.82 720.81 251.04 723.4 253.47C725.98 255.91 727.27 259.59 727.27 264.51V268.78C727.27 273.77 725.37 277.54 721.57 280.09C725.67 282.46 727.72 286.29 727.72 291.58V296.75C727.72 299.12 727.45 301.26 726.92 303.16C726.39 305.06 725.51 306.68 724.29 308.01C723.07 309.35 721.45 310.37 719.44 311.08C717.42 311.79 714.93 312.15 711.96 312.15H659.06C657.28 312.15 656.39 311.26 656.39 309.48V252.48C656.39 250.7 657.28 249.81 659.06 249.81H710.36L710.35 249.82ZM670.01 275.74H706.52C709.49 275.74 711.51 275.3 712.58 274.4C713.65 273.51 714.18 272.21 714.18 270.48V267.45C714.18 265.61 713.66 264.26 712.62 263.4C711.58 262.54 709.9 262.11 707.59 262.11H671.16C670.39 262.11 670 262.5 670 263.27V275.74H670.01ZM670.01 285.45V298.72C670.01 299.49 670.39 299.88 671.17 299.88H707.68C710.05 299.88 711.75 299.45 712.76 298.59C713.77 297.73 714.27 296.35 714.27 294.45V291.06C714.27 289.22 713.72 287.83 712.62 286.88C711.52 285.93 709.49 285.46 706.52 285.46H670.01V285.45Z" fill="black"/>
<path d="M758.79 249.82C760.1 249.82 760.75 250.47 760.75 251.78V310.2C760.75 311.5 760.1 312.16 758.79 312.16H749.17C747.8 312.16 747.12 311.51 747.12 310.2V251.78C747.12 250.47 747.8 249.82 749.17 249.82H758.79Z" fill="black"/>
<path d="M849.28 249.82C850.64 249.82 851.33 250.47 851.33 251.78V260.51C851.33 261.88 850.65 262.56 849.28 262.56H821.31V310.21C821.31 311.51 820.66 312.17 819.35 312.17H809.64C808.33 312.17 807.68 311.52 807.68 310.21V262.56H779.71C778.34 262.56 777.66 261.88 777.66 260.51V251.78C777.66 250.47 778.34 249.82 779.71 249.82H849.27H849.28Z" fill="black"/>
<path d="M357.54 93.19L203.87 4.47C193.55 -1.49 180.73 -1.49 170.41 4.47L16.73 93.19C6.41 99.15 0 110.25 0 122.17V299.62C0 311.54 6.41 322.64 16.73 328.6L170.41 417.33C175.57 420.31 181.35 421.8 187.14 421.8C192.93 421.8 198.71 420.31 203.87 417.33L357.55 328.6C367.87 322.64 374.28 311.54 374.28 299.62V122.17C374.28 110.25 367.87 99.15 357.55 93.19H357.54ZM190.48 394.13C188.42 395.32 185.86 395.32 183.8 394.13L30.12 305.41C28.06 304.22 26.78 302 26.78 299.62V171.53H187.14C197.38 171.53 206.73 175.46 213.74 181.91C221.58 189.11 226.51 199.44 226.51 210.9C226.51 222.36 221.58 232.69 213.74 239.89H246.58C250.87 231.13 253.28 221.29 253.28 210.9C253.28 200.51 250.87 190.67 246.58 181.91C244.79 178.25 242.67 174.78 240.25 171.53C228.19 155.29 208.87 144.75 187.13 144.75H26.78V134.38H187.14C214.94 134.38 239.33 149.29 252.73 171.53C254.72 174.83 256.47 178.3 257.95 181.91C261.63 190.85 263.66 200.65 263.66 210.9C263.66 221.15 261.63 230.94 257.95 239.89H286.33C289.04 230.59 290.43 220.85 290.43 210.9C290.43 183.31 279.69 157.37 260.18 137.86C240.67 118.35 214.73 107.61 187.14 107.61H45.33L183.8 27.66C184.83 27.07 185.98 26.77 187.14 26.77C188.3 26.77 189.45 27.07 190.48 27.66L344.16 116.38C346.22 117.57 347.5 119.79 347.5 122.17V250.26H187.14C176.9 250.26 167.55 246.33 160.54 239.88C152.7 232.68 147.77 222.35 147.77 210.89C147.77 199.43 152.7 189.1 160.54 181.9H127.7C123.41 190.66 121 200.5 121 210.89C121 247.36 150.67 277.03 187.14 277.03H347.5V287.41H187.14C144.95 287.41 110.62 253.08 110.62 210.89C110.62 200.64 112.65 190.85 116.32 181.9H87.94C85.23 191.2 83.83 200.94 83.83 210.89C83.83 238.48 94.57 264.42 114.08 283.93C133.59 303.44 159.53 314.19 187.12 314.19H328.92L190.46 394.13H190.48Z" fill="#12AAFF"/>
</svg>
