<svg width="457" height="74" viewBox="0 0 457 74" fill="none" xmlns="http://www.w3.org/2000/svg">
<path fill-rule="evenodd" clip-rule="evenodd" d="M223.089 7.22919C219.384 7.22919 216.346 10.2299 216.346 14.0558C216.346 17.8067 219.384 20.8074 223.089 20.8074C226.794 20.8074 229.833 17.8067 229.833 14.0558C229.833 10.2299 226.794 7.22919 223.089 7.22919ZM229.017 24.258H217.235V64.6925H229.017V24.258ZM148.47 8.72967H159.955V24.2583H168.773V35.0609H159.955V49.3142C159.955 51.4147 161.586 53.0651 163.586 53.0651H168.699V64.5428H163.586C155.287 64.5428 148.47 57.7162 148.47 49.2392V34.9858H143.135V24.1833H148.47V8.72967ZM196.857 23.3581C191.522 23.3581 187.299 25.6086 185.668 29.1345V8.72967H173.886V64.6178H185.668V41.9625C185.668 37.2364 188.706 33.9356 193.004 33.9356C197.376 33.9356 199.822 36.7863 199.822 41.5874V64.6928H211.604V40.087C211.604 29.5846 206.268 23.3581 196.857 23.3581ZM245.838 24.1831V29.7344C247.616 25.6834 251.914 23.3579 257.323 23.2829C258.138 23.2829 259.176 23.3579 260.435 23.5079V34.7606C259.25 34.5355 257.916 34.3855 256.508 34.3855C249.765 34.3855 245.838 38.2114 245.838 44.8879V64.6176H234.056V24.1831H245.838ZM293.558 29.5096C292.373 25.9837 287.704 23.5082 281.702 23.5082C276.07 23.5082 271.328 25.5336 267.549 29.5846C263.844 33.5605 261.917 38.5867 261.917 44.4381C261.917 50.2895 263.844 55.2406 267.549 59.3666C271.328 63.3425 276.07 65.368 281.702 65.368C287.704 65.368 292.373 62.8924 293.558 59.3666V64.6928H305.34V8.72967H293.558V29.5096ZM291.187 51.6398C289.186 53.5902 286.741 54.4904 283.851 54.4904C281.035 54.4904 278.59 53.5152 276.663 51.6398C274.663 49.6143 273.699 47.2137 273.699 44.4381C273.699 41.6624 274.663 39.2619 276.663 37.3114C278.664 35.2859 281.035 34.3107 283.851 34.3107C286.815 34.3107 289.26 35.2859 291.187 37.3114C293.262 39.2619 294.299 41.6624 294.299 44.4381C294.299 47.2137 293.262 49.6143 291.187 51.6398ZM339.354 24.408L350.024 43.6125L357.212 24.258H368.772L352.321 67.018L339.354 43.7626L326.386 67.018L310.01 24.258H321.57L328.683 43.6125L339.354 24.408ZM388.185 23.2829C382.109 23.2829 376.996 25.2333 372.994 29.1342C369.067 32.9601 367.066 38.0613 367.066 44.3628V44.7379C367.066 51.0394 369.067 56.1406 372.994 59.9665C377.07 63.7174 382.257 65.6678 388.778 65.6678C394.854 65.6678 399.819 64.4675 403.598 61.9919V51.5645C399.893 54.1901 395.15 55.4654 389.445 55.4654C383.22 55.4654 379.145 52.3897 378.922 47.5886H408.192C408.34 46.3883 408.414 45.038 408.414 43.6877C408.414 37.9113 406.488 33.1102 402.783 29.2093C399.078 25.2333 394.113 23.2829 388.185 23.2829ZM378.922 39.8618C378.997 37.9863 379.96 36.4109 381.738 35.1356C383.591 33.8603 385.666 33.1852 388.185 33.1852C392.853 33.1852 396.484 36.2609 396.484 39.8618H378.922ZM436.499 23.5081C442.13 23.5081 446.873 25.5336 450.578 29.5846C454.357 33.6355 456.284 38.5117 456.284 44.363C456.284 50.2144 454.357 55.1656 450.578 59.2916C446.873 63.2675 442.13 65.293 436.499 65.293C430.497 65.293 425.828 62.8174 424.643 59.2916V64.6178H412.861V8.72967H424.643V29.5096C425.828 25.9837 430.497 23.5081 436.499 23.5081ZM434.35 54.4904C437.166 54.4904 439.537 53.5902 441.538 51.6398C443.538 49.6143 444.502 47.2137 444.502 44.4381C444.502 41.6624 443.538 39.2618 441.538 37.3114C439.611 35.2859 437.166 34.3107 434.35 34.3107C431.46 34.3107 429.014 35.2859 426.94 37.3114C424.939 39.2618 423.902 41.6624 423.902 44.4381C423.902 47.2137 424.939 49.6143 426.94 51.6398C428.94 53.5152 431.386 54.4904 434.35 54.4904Z" fill="black"/>
<path d="M64.1955 0.22998C64.9393 0.38459 65.6415 0.697179 66.2546 1.14668C66.941 1.69013 67.4667 2.41053 67.7755 3.23063C69.7249 8.10791 71.6742 12.9822 73.6236 17.8536C75.7808 23.2713 77.9489 28.69 80.1277 34.1096C81.2632 36.9511 82.3928 39.7955 83.5459 42.6311C83.7912 43.2111 83.9176 43.8346 83.9176 44.4645C83.9176 45.0944 83.7912 45.7179 83.5459 46.2979L73.6383 71.0134C72.9823 72.6493 71.7938 73.6663 70.0465 73.9315C67.8726 74.2587 65.9281 73.1858 65.1427 71.2787C63.2835 66.707 61.4656 62.1205 59.6329 57.537L50.3136 34.2216C47.5543 27.3026 44.7911 20.3856 42.0239 13.4706C41.1061 11.1744 40.2177 8.86642 39.2587 6.58793C38.9946 5.9684 38.8697 5.29827 38.8928 4.625C38.916 3.95172 39.0865 3.29177 39.3925 2.69189C39.6984 2.092 40.1322 1.56685 40.6632 1.15364C41.1942 0.740421 41.8094 0.449242 42.4652 0.300723C42.5446 0.283037 42.6211 0.253561 42.6976 0.22998H64.1955Z" fill="url(#paint0_linear_4620_26196)"/>
<path d="M25.5845 0.22998C25.8287 0.297775 26.0729 0.356727 26.3111 0.439259C26.9315 0.63312 27.5006 0.963849 27.9766 1.40712C28.4526 1.8504 28.8233 2.39495 29.0616 3.00072C31.1894 8.2828 33.3075 13.5688 35.4157 18.8588C37.5494 24.1919 39.6831 29.5261 41.8168 34.8612C42.8601 37.4767 43.9083 40.0912 44.9615 42.7048C45.1972 43.2645 45.3187 43.8658 45.3187 44.4733C45.3187 45.0808 45.1972 45.6822 44.9615 46.2419C43.7848 49.1777 42.6081 52.1125 41.4314 55.0463C39.2742 60.4168 37.1169 65.7874 34.9597 71.1579C34.621 71.9941 34.042 72.7106 33.2962 73.2165C32.5504 73.7224 31.6714 73.9949 30.7707 73.9993C29.8166 74.0162 28.8806 73.7373 28.0907 73.2007C27.3008 72.6641 26.6957 71.896 26.3582 71.0016C24.3637 65.9406 22.3281 60.8943 20.3101 55.8422C17.6057 49.0018 14.8876 42.1663 12.1557 35.3358C9.37483 28.3834 6.59493 21.43 3.81601 14.4757C2.76289 11.8435 1.71858 9.2054 0.65075 6.57614C0.184194 5.48062 0.161568 4.24615 0.587666 3.1342C1.01376 2.02226 1.85511 1.12018 2.9335 0.619062C3.32473 0.460637 3.72682 0.330608 4.13666 0.22998L25.5845 0.22998Z" fill="url(#paint1_linear_4620_26196)"/>
<path d="M121.778 45.1826C121.19 47.1723 120.308 49.0499 119.557 50.9687C117.387 56.4277 115.204 61.8837 113.009 67.3367C112.506 68.5865 111.994 69.8333 111.506 71.089C111.162 71.947 110.569 72.682 109.804 73.1987C109.039 73.7154 108.137 73.9901 107.214 73.9872C106.291 73.9843 105.391 73.7041 104.629 73.1826C103.867 72.6612 103.278 71.9226 102.94 71.0625L93.4146 47.24L85.1779 26.6629C82.4892 19.9444 79.8025 13.2268 77.1177 6.51023C76.8624 5.89609 76.7447 5.23332 76.7729 4.56864C76.8011 3.90397 76.9744 3.25358 77.2807 2.66334C77.587 2.0731 78.0188 1.55738 78.5457 1.15254C79.0726 0.747701 79.6817 0.463608 80.33 0.32029C80.4183 0.299657 80.5036 0.270181 80.5918 0.243652H102.09C102.157 0.264285 102.222 0.290814 102.29 0.305552C103.044 0.463213 103.746 0.808982 104.331 1.31083C104.916 1.81268 105.366 2.45438 105.637 3.17651C106.889 6.3206 108.142 9.45586 109.397 12.5823C112.682 20.7923 115.964 29.0023 119.243 37.2123C120.105 39.3759 121.064 41.5011 121.77 43.7236L121.778 45.1826Z" fill="url(#paint2_linear_4620_26196)"/>
<defs>
<linearGradient id="paint0_linear_4620_26196" x1="35.5581" y1="6.21949" x2="87.3442" y2="57.902" gradientUnits="userSpaceOnUse">
<stop stop-color="#FF00A8"/>
<stop offset="1" stop-color="#6200C6"/>
</linearGradient>
<linearGradient id="paint1_linear_4620_26196" x1="-3.03225" y1="6.2018" x2="48.7421" y2="57.8725" gradientUnits="userSpaceOnUse">
<stop stop-color="#FF00A8"/>
<stop offset="1" stop-color="#6200C6"/>
</linearGradient>
<linearGradient id="paint2_linear_4620_26196" x1="73.4435" y1="6.20073" x2="125.221" y2="57.8744" gradientUnits="userSpaceOnUse">
<stop stop-color="#FF00A8"/>
<stop offset="1" stop-color="#6200C6"/>
</linearGradient>
</defs>
</svg>
