<svg width="161" height="32" viewBox="0 0 161 32" fill="none" xmlns="http://www.w3.org/2000/svg">
<g clip-path="url(#clip0_6_36)">
<path d="M31.429 19.2H44V32H31.429V19.2Z" fill="white"/>
<path d="M31.429 19.2H44V32H31.429V19.2Z" fill="url(#paint0_linear_6_36)"/>
<path d="M28.286 0L0 28.8V32H12.571V19.2H31.43V0H28.287H28.286Z" fill="white"/>
<path d="M28.286 0L0 28.8V32H12.571V19.2H31.43V0H28.287H28.286Z" fill="url(#paint1_linear_6_36)"/>
<path d="M142.552 6.01489H138.149V10.2919H142.552V6.01489ZM116.078 9.04189H115.589L109.364 15.3639V16.4939H112.482V26.2239C112.482 28.0169 113.005 29.4659 113.987 30.4669C114.971 31.4699 116.392 31.9999 118.141 31.9999C119.388 31.9999 120.351 31.7749 121.02 31.4229L121.127 31.3659V27.8959L120.806 28.1299C120.298 28.4999 119.569 28.6449 118.884 28.6449C117.872 28.6449 117.184 28.4109 116.745 27.9629C116.306 27.5129 116.078 26.8089 116.078 25.7819V16.4939H121.127V13.2509H116.078V9.03989V9.04189ZM100.962 12.8439C99.313 12.8439 97.689 13.2959 96.472 14.2289C95.25 15.1659 94.45 16.5809 94.45 18.4719C94.45 20.2919 95.197 21.4679 96.287 22.2569C97.388 23.0539 98.754 23.4349 100.066 23.7259C101.607 24.0579 103.916 24.5199 103.916 26.4829C103.916 28.2429 102.097 28.7559 100.628 28.7559C98.464 28.7559 96.432 27.7509 94.824 26.2979L94.487 25.9929V30.0539L94.568 30.1139C96.354 31.4369 98.589 31.9999 100.591 31.9999C102.424 31.9999 104.141 31.5209 105.406 30.5559C106.676 29.5859 107.475 28.1329 107.475 26.2249C107.475 24.5389 106.825 23.3549 105.732 22.4999C104.653 21.6549 103.151 21.1399 101.457 20.7499C100.107 20.3909 97.972 19.8439 97.972 18.1029C97.972 16.5339 99.75 16.0509 101.037 16.0509C102.903 16.0509 104.715 16.9449 106.292 18.2209L106.621 18.4879V14.5999L106.532 14.5399C104.883 13.4391 102.945 12.8492 100.962 12.8439Z" fill="black"/>
<path fill-rule="evenodd" clip-rule="evenodd" d="M153.485 12.844C150.794 12.844 148.82 13.789 147.157 15.142L147.083 15.202V19.077L147.422 18.767C149.293 17.053 150.991 16.125 153.411 16.125C154.714 16.125 155.73 16.458 156.416 17.042C157.099 17.622 157.478 18.467 157.478 19.542V19.816L152.338 20.674C149.035 21.221 146.155 23.036 146.155 26.668C146.155 29.742 148.558 32 151.814 32C154.058 32 156.115 31.163 157.589 29.573V31.593H161V19.765C161 17.635 160.316 15.898 159.019 14.695C157.724 13.492 155.841 12.845 153.485 12.845V12.844ZM152.928 23.764L157.515 22.957V24.231C157.515 26.871 155.434 28.793 152.408 28.793C151.031 28.793 149.751 27.954 149.751 26.483C149.751 24.732 151.437 24.041 152.928 23.764Z" fill="black"/>
<path d="M134.027 12.9551C131.929 12.9551 129.758 14.0501 128.697 15.7651V13.2501H125.175V31.5931H128.734V22.8641C128.734 20.9581 129.227 19.3731 130.115 18.2691C130.998 17.1691 132.285 16.5301 133.915 16.5301C134.284 16.5301 135.008 16.6041 135.008 16.6041V13.0301C135.008 13.0301 134.359 12.9561 134.027 12.9561V12.9551ZM142.149 13.2501H138.553V31.5941H142.149V13.2501Z" fill="black"/>
<path fill-rule="evenodd" clip-rule="evenodd" d="M78.624 6L68 31.59H71.853L74.636 24.74H85.912L88.695 31.59H92.622L82.035 6H78.624ZM84.562 21.361H75.985L80.256 10.701L84.562 21.361Z" fill="black"/>
</g>
<defs>
<linearGradient id="paint0_linear_6_36" x1="34.734" y1="-4.78121e-05" x2="34.915" y2="32.001" gradientUnits="userSpaceOnUse">
<stop stop-color="#B99985"/>
<stop offset="0.26" stop-color="#D29A50"/>
<stop offset="0.477" stop-color="#D06E18"/>
<stop offset="0.766" stop-color="#CB513F"/>
<stop offset="0.996" stop-color="#A42121"/>
</linearGradient>
<linearGradient id="paint1_linear_6_36" x1="34.734" y1="4.32564e-09" x2="34.915" y2="32.001" gradientUnits="userSpaceOnUse">
<stop stop-color="#B99985"/>
<stop offset="0.26" stop-color="#D29A50"/>
<stop offset="0.477" stop-color="#D06E18"/>
<stop offset="0.766" stop-color="#CB513F"/>
<stop offset="0.996" stop-color="#A42121"/>
</linearGradient>
<clipPath id="clip0_6_36">
<rect width="161" height="32" fill="white"/>
</clipPath>
</defs>
</svg>
