<svg width="2507" height="675" viewBox="0 0 2507 675" fill="none" xmlns="http://www.w3.org/2000/svg">
<path d="M2384.11 469.342V268.085H2438.23V303.201H2440.33C2443.99 290.709 2450.15 281.275 2458.8 274.899C2467.45 268.435 2477.41 265.203 2488.67 265.203C2491.47 265.203 2494.48 265.378 2497.71 265.727C2500.95 266.076 2503.79 266.557 2506.23 267.168V316.696C2503.61 315.91 2499.99 315.211 2495.36 314.6C2490.73 313.988 2486.49 313.683 2482.65 313.683C2474.44 313.683 2467.1 315.473 2460.63 319.055C2454.26 322.549 2449.19 327.44 2445.44 333.73C2441.77 340.019 2439.93 347.269 2439.93 355.48V469.342H2384.11Z" fill="black"/>
<path d="M2255.32 473.273C2234.61 473.273 2216.79 469.08 2201.86 460.694C2187.01 452.221 2175.56 440.254 2167.53 424.793C2159.49 409.244 2155.47 390.857 2155.47 369.631C2155.47 348.929 2159.49 330.76 2167.53 315.124C2175.56 299.488 2186.88 287.303 2201.46 278.567C2216.14 269.832 2233.35 265.465 2253.09 265.465C2266.37 265.465 2278.73 267.605 2290.17 271.885C2301.7 276.078 2311.74 282.411 2320.3 290.884C2328.95 299.357 2335.68 310.014 2340.48 322.854C2345.29 335.608 2347.69 350.545 2347.69 367.665V382.995H2177.75V348.405H2295.15C2295.15 340.368 2293.4 333.249 2289.91 327.047C2286.41 320.845 2281.56 315.997 2275.36 312.503C2269.25 308.922 2262.13 307.131 2254.01 307.131C2245.53 307.131 2238.02 309.097 2231.47 313.027C2225 316.871 2219.94 322.068 2216.27 328.62C2212.6 335.084 2210.72 342.29 2210.64 350.239V383.127C2210.64 393.085 2212.47 401.689 2216.14 408.939C2219.89 416.189 2225.18 421.779 2231.99 425.71C2238.81 429.641 2246.89 431.606 2256.23 431.606C2262.43 431.606 2268.11 430.733 2273.27 428.986C2278.42 427.239 2282.83 424.618 2286.5 421.124C2290.17 417.63 2292.96 413.35 2294.89 408.284L2346.51 411.69C2343.89 424.094 2338.52 434.926 2330.39 444.185C2322.36 453.357 2311.96 460.519 2299.21 465.673C2286.54 470.739 2271.91 473.273 2255.32 473.273Z" fill="black"/>
<path d="M2141.52 268.085L2071.16 469.342H2008.27L1937.9 268.085H1996.87L2038.66 412.083H2040.76L2082.43 268.085H2141.52Z" fill="black"/>
<path d="M1830.5 473.273C1809.79 473.273 1791.97 469.08 1777.04 460.694C1762.19 452.221 1750.74 440.254 1742.71 424.793C1734.67 409.244 1730.65 390.857 1730.65 369.631C1730.65 348.929 1734.67 330.76 1742.71 315.124C1750.74 299.488 1762.06 287.303 1776.64 278.567C1791.32 269.832 1808.53 265.465 1828.27 265.465C1841.55 265.465 1853.91 267.605 1865.35 271.885C1876.88 276.078 1886.92 282.411 1895.48 290.884C1904.13 299.357 1910.86 310.014 1915.66 322.854C1920.47 335.608 1922.87 350.545 1922.87 367.665V382.995H1752.93V348.405H1870.33C1870.33 340.368 1868.58 333.249 1865.09 327.047C1861.59 320.845 1856.74 315.997 1850.54 312.503C1844.43 308.922 1837.31 307.131 1829.18 307.131C1820.71 307.131 1813.2 309.097 1806.65 313.027C1800.18 316.871 1795.12 322.068 1791.45 328.62C1787.78 335.084 1785.9 342.29 1785.82 350.239V383.127C1785.82 393.085 1787.65 401.689 1791.32 408.939C1795.07 416.189 1800.36 421.779 1807.17 425.71C1813.99 429.641 1822.07 431.606 1831.41 431.606C1837.61 431.606 1843.29 430.733 1848.45 428.986C1853.6 427.239 1858.01 424.618 1861.68 421.124C1865.35 417.63 1868.14 413.35 1870.07 408.284L1921.69 411.69C1919.07 424.094 1913.7 434.926 1905.57 444.185C1897.54 453.357 1887.14 460.519 1874.39 465.673C1861.72 470.739 1847.09 473.273 1830.5 473.273Z" fill="black"/>
<path d="M1704.58 268.085V310.014H1583.38V268.085H1704.58ZM1610.9 219.868H1666.71V407.498C1666.71 412.651 1667.5 416.669 1669.07 419.552C1670.64 422.347 1672.83 424.313 1675.62 425.448C1678.5 426.584 1681.82 427.152 1685.58 427.152C1688.2 427.152 1690.82 426.933 1693.44 426.496C1696.06 425.972 1698.07 425.579 1699.47 425.317L1708.25 466.852C1705.45 467.726 1701.52 468.731 1696.46 469.866C1691.39 471.089 1685.23 471.831 1677.98 472.094C1664.53 472.618 1652.74 470.827 1642.6 466.721C1632.56 462.616 1624.74 456.239 1619.15 447.592C1613.56 438.944 1610.81 428.025 1610.9 414.835V219.868Z" fill="black"/>
<path d="M1440.89 473.142C1428.05 473.142 1416.6 470.914 1406.56 466.459C1396.51 461.917 1388.56 455.235 1382.71 446.412C1376.95 437.502 1374.06 426.409 1374.06 413.132C1374.06 401.951 1376.12 392.56 1380.22 384.961C1384.33 377.361 1389.92 371.247 1396.99 366.617C1404.07 361.988 1412.11 358.494 1421.1 356.135C1430.19 353.777 1439.71 352.117 1449.67 351.156C1461.37 349.933 1470.81 348.798 1477.97 347.749C1485.13 346.614 1490.33 344.954 1493.56 342.77C1496.79 340.587 1498.41 337.355 1498.41 333.074V332.288C1498.41 323.99 1495.79 317.57 1490.55 313.027C1485.39 308.485 1478.06 306.214 1468.53 306.214C1458.49 306.214 1450.5 308.441 1444.56 312.896C1438.62 317.264 1434.69 322.767 1432.76 329.406L1381.14 325.213C1383.76 312.984 1388.91 302.414 1396.6 293.504C1404.29 284.507 1414.2 277.607 1426.34 272.802C1438.57 267.911 1452.72 265.465 1468.8 265.465C1479.98 265.465 1490.68 266.775 1500.9 269.396C1511.21 272.016 1520.33 276.078 1528.28 281.581C1536.32 287.084 1542.65 294.16 1547.28 302.807C1551.91 311.368 1554.23 321.631 1554.23 333.599V469.342H1501.29V441.433H1499.72C1496.49 447.723 1492.16 453.269 1486.75 458.074C1481.33 462.791 1474.82 466.503 1467.22 469.211C1459.62 471.831 1450.85 473.142 1440.89 473.142ZM1456.87 434.62C1465.08 434.62 1472.33 433.004 1478.62 429.772C1484.91 426.453 1489.85 421.998 1493.43 416.407C1497.01 410.817 1498.8 404.484 1498.8 397.408V376.051C1497.05 377.187 1494.65 378.235 1491.6 379.196C1488.63 380.069 1485.26 380.899 1481.51 381.685C1477.75 382.384 1473.99 383.039 1470.24 383.651C1466.48 384.175 1463.08 384.655 1460.02 385.092C1453.47 386.053 1447.74 387.581 1442.85 389.678C1437.96 391.774 1434.16 394.613 1431.45 398.195C1428.75 401.689 1427.39 406.056 1427.39 411.297C1427.39 418.897 1430.14 424.706 1435.65 428.724C1441.24 432.654 1448.31 434.62 1456.87 434.62Z" fill="black"/>
<path d="M1209.07 352.991V469.342H1153.25V201H1207.5V303.594H1209.86C1214.4 291.714 1221.74 282.411 1231.87 275.685C1242 268.872 1254.71 265.465 1270 265.465C1283.97 265.465 1296.16 268.522 1306.55 274.637C1317.04 280.664 1325.16 289.355 1330.92 300.711C1336.78 311.979 1339.66 325.475 1339.57 341.198V469.342H1283.76V351.156C1283.84 338.752 1280.7 329.1 1274.32 322.199C1268.03 315.299 1259.21 311.848 1247.85 311.848C1240.25 311.848 1233.53 313.464 1227.68 316.696C1221.91 319.928 1217.37 324.645 1214.05 330.847C1210.82 336.962 1209.16 344.343 1209.07 352.991Z" fill="black"/>
<path d="M879.113 469.342L824.344 268.085H880.816L912 403.305H913.835L946.329 268.085H1001.75L1034.77 402.519H1036.48L1067.14 268.085H1123.48L1068.84 469.342H1009.75L975.155 342.77H972.666L938.075 469.342H879.113Z" fill="black"/>
<path d="M337.5 0L413.273 233.207H658.482L460.104 377.336L535.878 610.543L337.5 466.414L139.122 610.543L214.896 377.336L16.5184 233.207H261.727L337.5 0Z" fill="#1CAC78"/>
</svg>
